<?xml version="1.0" encoding="UTF-8"?>
<!DOCTYPE svg PUBLIC "-//W3C//DTD SVG 1.1//EN" "http://www.w3.org/Graphics/SVG/1.1/DTD/svg11.dtd">
<svg xmlns="http://www.w3.org/2000/svg" version="1.1" width="350px" height="140px" style="shape-rendering:geometricPrecision; text-rendering:geometricPrecision; image-rendering:optimizeQuality; fill-rule:evenodd; clip-rule:evenodd" xmlns:xlink="http://www.w3.org/1999/xlink">
<g><path style="opacity:0.545" fill="#26819d" d="M 75.5,45.5 C 78.5719,45.1826 81.5719,45.5159 84.5,46.5C 84.3764,47.1067 84.0431,47.44 83.5,47.5C 79.5,48.1667 75.5,48.8333 71.5,49.5C 70.7611,49.631 70.0944,49.4643 69.5,49C 71.6181,47.9179 73.6181,46.7512 75.5,45.5 Z"/></g>
<g><path style="opacity:0.741" fill="#1a6180" d="M 75.5,45.5 C 77.3035,44.838 79.3035,44.5046 81.5,44.5C 84.5267,44.2865 87.1934,44.9532 89.5,46.5C 88.1266,46.3433 86.7932,46.51 85.5,47C 87.0581,47.21 88.3915,47.71 89.5,48.5C 87.2646,48.7947 85.2646,48.4614 83.5,47.5C 84.0431,47.44 84.3764,47.1067 84.5,46.5C 81.5719,45.5159 78.5719,45.1826 75.5,45.5 Z"/></g>
<g><path style="opacity:0.863" fill="#267d9a" d="M 89.5,46.5 C 92.7541,46.7936 95.4208,48.127 97.5,50.5C 96.5084,50.3284 95.8417,50.6618 95.5,51.5C 93.1815,51.0075 91.1815,50.0075 89.5,48.5C 88.3915,47.71 87.0581,47.21 85.5,47C 86.7932,46.51 88.1266,46.3433 89.5,46.5 Z"/></g>
<g><path style="opacity:0.78" fill="#1e678a" d="M 75.5,45.5 C 73.6181,46.7512 71.6181,47.9179 69.5,49C 70.0944,49.4643 70.7611,49.631 71.5,49.5C 70.0552,51.0627 68.3885,52.396 66.5,53.5C 66.44,52.9569 66.1067,52.6236 65.5,52.5C 64.1482,53.5244 62.8149,54.5244 61.5,55.5C 61.369,54.7611 61.5357,54.0944 62,53.5C 65.6813,49.2914 70.1813,46.6248 75.5,45.5 Z"/></g>
<g><path style="opacity:0.91" fill="#28859e" d="M 97.5,50.5 C 100.973,52.6367 103.306,55.6367 104.5,59.5C 104.631,60.2389 104.464,60.9056 104,61.5C 103.583,60.244 102.75,59.5774 101.5,59.5C 99.8847,56.5505 97.8847,53.8838 95.5,51.5C 95.8417,50.6618 96.5084,50.3284 97.5,50.5 Z"/></g>
<g><path style="opacity:0.965" fill="#26a3b9" d="M 122.5,54.5 C 126.634,53.5151 130.968,53.1818 135.5,53.5C 137.38,53.2291 138.713,53.8958 139.5,55.5C 138.833,55.8333 138.167,56.1667 137.5,56.5C 137.5,55.1667 136.833,54.5 135.5,54.5C 132.5,54.5 129.5,54.5 126.5,54.5C 125.167,54.5 123.833,54.5 122.5,54.5 Z"/></g>
<g><path style="opacity:0.941" fill="#28809c" d="M 86.5,57.5 C 86.5,58.8333 85.8333,59.5 84.5,59.5C 81.411,56.8575 79.0776,57.5242 77.5,61.5C 77.5,60.1667 76.8333,59.5 75.5,59.5C 77.1455,57.1878 79.1455,55.1878 81.5,53.5C 83.4192,54.6125 85.0858,55.9458 86.5,57.5 Z"/></g>
<g><path style="opacity:0.482" fill="#156788" d="M 193.5,54.5 C 191.265,54.2053 189.265,54.5386 187.5,55.5C 187.768,57.099 187.434,58.4324 186.5,59.5C 184.952,59.8212 184.285,60.8212 184.5,62.5C 184.5,62.8333 184.5,63.1667 184.5,63.5C 183.833,63.8333 183.167,64.1667 182.5,64.5C 182.167,63.1667 181.833,61.8333 181.5,60.5C 185.067,59.5435 186.734,57.2102 186.5,53.5C 189.059,53.1984 191.393,53.5318 193.5,54.5 Z"/></g>
<g><path style="opacity:0.98" fill="#27859e" d="M 66.5,53.5 C 64.4776,55.5313 62.8109,57.8646 61.5,60.5C 60.1667,60.5 59.5,59.8333 59.5,58.5C 59.427,56.9731 60.0937,55.9731 61.5,55.5C 62.8149,54.5244 64.1482,53.5244 65.5,52.5C 66.1067,52.6236 66.44,52.9569 66.5,53.5 Z"/></g>
<g><path style="opacity:1" fill="#2aaac4" d="M 134.5,57.5 C 135.494,59.3344 135.494,61.0011 134.5,62.5C 134.443,61.391 134.11,60.391 133.5,59.5C 132.081,58.5489 130.415,58.2155 128.5,58.5C 128.5,60.5 128.5,62.5 128.5,64.5C 127.463,63.0697 126.796,61.403 126.5,59.5C 126.414,58.5041 126.748,57.6708 127.5,57C 129.885,56.4436 132.218,56.6103 134.5,57.5 Z"/></g>
<g><path style="opacity:1" fill="#24c3d3" d="M 187.5,55.5 C 189.167,55.5 190.833,55.5 192.5,55.5C 192.657,56.8734 192.49,58.2068 192,59.5C 191.692,58.6919 191.192,58.0253 190.5,57.5C 189.571,58.6888 189.238,60.0222 189.5,61.5C 188.127,61.6567 186.793,61.49 185.5,61C 186.056,60.6174 186.389,60.1174 186.5,59.5C 187.434,58.4324 187.768,57.099 187.5,55.5 Z"/></g>
<g><path style="opacity:0.896" fill="#17728f" d="M 135.5,53.5 C 130.968,53.1818 126.634,53.5151 122.5,54.5C 122.5,57.5 122.5,60.5 122.5,63.5C 122.5,68.1667 122.5,72.8333 122.5,77.5C 122.167,77.5 121.833,77.5 121.5,77.5C 120.344,69.6775 120.177,61.6775 121,53.5C 125.933,52.1764 130.766,52.1764 135.5,53.5 Z"/></g>
<g><path style="opacity:1" fill="#21c4d6" d="M 126.5,54.5 C 129.5,54.5 132.5,54.5 135.5,54.5C 135.443,55.609 135.11,56.609 134.5,57.5C 132.218,56.6103 129.885,56.4436 127.5,57C 126.748,57.6708 126.414,58.5041 126.5,59.5C 125.392,60.8227 125.392,62.3227 126.5,64C 126.164,65.0299 125.497,65.5299 124.5,65.5C 124.167,65.5 123.833,65.5 123.5,65.5C 123.5,64.8333 123.5,64.1667 123.5,63.5C 122.925,59.8453 123.925,56.8453 126.5,54.5 Z"/></g>
<g><path style="opacity:1" fill="#27c1d7" d="M 135.5,54.5 C 136.833,54.5 137.5,55.1667 137.5,56.5C 137.5,57.5 137.5,58.5 137.5,59.5C 138.675,59.281 139.675,59.6143 140.5,60.5C 139.873,61.4168 139.539,62.4168 139.5,63.5C 137.784,63.6287 136.117,63.962 134.5,64.5C 134.5,63.8333 134.5,63.1667 134.5,62.5C 135.494,61.0011 135.494,59.3344 134.5,57.5C 135.11,56.609 135.443,55.609 135.5,54.5 Z"/></g>
<g><path style="opacity:1" fill="#2db9d0" d="M 139.5,55.5 C 141.616,58.9839 141.949,62.6505 140.5,66.5C 140.5,67.1667 140.167,67.5 139.5,67.5C 139.5,66.1667 139.5,64.8333 139.5,63.5C 139.539,62.4168 139.873,61.4168 140.5,60.5C 139.675,59.6143 138.675,59.281 137.5,59.5C 137.5,58.5 137.5,57.5 137.5,56.5C 138.167,56.1667 138.833,55.8333 139.5,55.5 Z"/></g>
<g><path style="opacity:0.945" fill="#248ca6" d="M 159.5,59.5 C 156.15,59.335 152.817,59.5017 149.5,60C 148.177,60.8159 147.511,61.9826 147.5,63.5C 146.609,62.8902 145.609,62.5569 144.5,62.5C 145.457,59.8318 147.457,58.3318 150.5,58C 153.772,57.4236 156.772,57.9236 159.5,59.5 Z"/></g>
<g><path style="opacity:0.969" fill="#1f809a" d="M 180.5,60.5 C 176.452,59.3216 172.452,59.3216 168.5,60.5C 168.167,60.5 167.833,60.5 167.5,60.5C 171.833,56.5 176.167,56.5 180.5,60.5 Z"/></g>
<g><path style="opacity:0.525" fill="#1b7796" d="M 220.5,59.5 C 220.167,59.5 219.833,59.5 219.5,59.5C 217.05,59.298 214.717,59.6314 212.5,60.5C 211.791,59.596 210.791,59.2627 209.5,59.5C 207.5,59.5 205.5,59.5 203.5,59.5C 204.624,58.1914 206.124,57.5247 208,57.5C 212.335,58.0084 216.501,58.6751 220.5,59.5 Z"/></g>
<g><path style="opacity:0.937" fill="#1f7794" d="M 277.5,59.5 C 277.167,59.5 276.833,59.5 276.5,59.5C 273.833,59.5 271.167,59.5 268.5,59.5C 271.5,56.8333 274.5,56.8333 277.5,59.5 Z"/></g>
<g><path style="opacity:0.984" fill="#23819c" d="M 291.5,61.5 C 291.5,61.8333 291.5,62.1667 291.5,62.5C 291.167,62.5 290.833,62.5 290.5,62.5C 290.5,61.8333 290.167,61.5 289.5,61.5C 287.562,59.8372 285.228,59.1706 282.5,59.5C 282.167,59.5 281.833,59.5 281.5,59.5C 285.34,56.6669 288.674,57.3335 291.5,61.5 Z"/></g>
<g><path style="opacity:1" fill="#27c2d1" d="M 122.5,54.5 C 123.833,54.5 125.167,54.5 126.5,54.5C 123.925,56.8453 122.925,59.8453 123.5,63.5C 123.167,63.5 122.833,63.5 122.5,63.5C 122.5,60.5 122.5,57.5 122.5,54.5 Z"/></g>
<g><path style="opacity:1" fill="#29bed4" d="M 187.5,55.5 C 189.265,54.5386 191.265,54.2053 193.5,54.5C 193.5,56.1667 193.5,57.8333 193.5,59.5C 194.833,59.5 196.167,59.5 197.5,59.5C 197.5,60.5 197.5,61.5 197.5,62.5C 195.833,62.5 194.167,62.5 192.5,62.5C 192.5,64.1667 192.5,65.8333 192.5,67.5C 191.778,66.4489 190.778,65.7822 189.5,65.5C 189.5,64.1667 189.5,62.8333 189.5,61.5C 189.238,60.0222 189.571,58.6888 190.5,57.5C 191.192,58.0253 191.692,58.6919 192,59.5C 192.49,58.2068 192.657,56.8734 192.5,55.5C 190.833,55.5 189.167,55.5 187.5,55.5 Z"/></g>
<g><path style="opacity:1" fill="#2c9fb8" d="M 256.5,62.5 C 256.5,63.8333 256.5,65.1667 256.5,66.5C 256.167,66.5 255.833,66.5 255.5,66.5C 255.923,64.2188 255.256,62.5521 253.5,61.5C 249.922,60.4113 246.255,60.2446 242.5,61C 241.748,61.6708 241.414,62.5041 241.5,63.5C 240.833,63.5 240.167,63.5 239.5,63.5C 239.5,63.1667 239.5,62.8333 239.5,62.5C 243.96,56.9785 249.293,56.1452 255.5,60C 256.252,60.6708 256.586,61.5041 256.5,62.5 Z"/></g>
<g><path style="opacity:0.596" fill="#1b728c" d="M 86.5,57.5 C 88.1667,58.5 89.5,59.8333 90.5,61.5C 89.1667,61.5 88.5,62.1667 88.5,63.5C 86.8333,62.5 85.5,61.1667 84.5,59.5C 85.8333,59.5 86.5,58.8333 86.5,57.5 Z"/></g>
<g><path style="opacity:1" fill="#2bc1d3" d="M 268.5,59.5 C 271.167,59.5 273.833,59.5 276.5,59.5C 275.7,61.7409 274.034,62.7409 271.5,62.5C 271.167,62.5 270.833,62.5 270.5,62.5C 269.449,61.7777 268.782,60.7777 268.5,59.5 Z"/></g>
<g><path style="opacity:1" fill="#27c3d4" d="M 282.5,59.5 C 285.228,59.1706 287.562,59.8372 289.5,61.5C 289.008,63.8185 288.008,65.8185 286.5,67.5C 286.5,65.5 286.5,63.5 286.5,61.5C 284.517,61.8432 283.183,61.1765 282.5,59.5 Z"/></g>
<g><path style="opacity:0.89" fill="#27859d" d="M 75.5,59.5 C 76.8333,59.5 77.5,60.1667 77.5,61.5C 75.1667,63.5 72.8333,65.5 70.5,67.5C 70.1667,67.5 69.8333,67.5 69.5,67.5C 69.5,67.1667 69.5,66.8333 69.5,66.5C 69.5,66.1667 69.5,65.8333 69.5,65.5C 71.1667,63.1667 73.1667,61.1667 75.5,59.5 Z"/></g>
<g><path style="opacity:0.588" fill="#278099" d="M 90.5,61.5 C 91.5,61.8333 92.1667,62.5 92.5,63.5C 92.5,64.8333 91.8333,65.5 90.5,65.5C 89.5,65.1667 88.8333,64.5 88.5,63.5C 88.5,62.1667 89.1667,61.5 90.5,61.5 Z"/></g>
<g><path style="opacity:0.843" fill="#176a84" d="M 101.5,59.5 C 102.75,59.5774 103.583,60.244 104,61.5C 104.464,60.9056 104.631,60.2389 104.5,59.5C 106.074,61.1016 106.741,63.1016 106.5,65.5C 105.732,64.7375 105.232,63.7375 105,62.5C 104.51,63.7932 104.343,65.1266 104.5,66.5C 103.323,64.3206 102.323,61.9872 101.5,59.5 Z"/></g>
<g><path style="opacity:1" fill="#2eb9cf" d="M 180.5,60.5 C 180.833,60.5 181.167,60.5 181.5,60.5C 181.833,61.8333 182.167,63.1667 182.5,64.5C 180.167,64.5 177.833,64.5 175.5,64.5C 175.5,64.1667 175.5,63.8333 175.5,63.5C 174.791,62.596 173.791,62.2627 172.5,62.5C 172.5,63.5 172.5,64.5 172.5,65.5C 175.167,66.1667 177.833,66.8333 180.5,67.5C 180.833,67.5 181.167,67.5 181.5,67.5C 181.5,68.1667 181.5,68.8333 181.5,69.5C 179.392,68.7626 177.225,68.096 175,67.5C 173.97,67.8361 173.47,68.5028 173.5,69.5C 171.961,68.2329 170.294,67.2329 168.5,66.5C 169.5,66.5 170.5,66.5 171.5,66.5C 171.5,65.1667 171.5,63.8333 171.5,62.5C 170.5,62.5 169.5,62.5 168.5,62.5C 168.5,61.8333 168.5,61.1667 168.5,60.5C 172.452,59.3216 176.452,59.3216 180.5,60.5 Z"/></g>
<g><path style="opacity:0.275" fill="#105e7f" d="M 193.5,54.5 C 194.434,55.5676 194.768,56.901 194.5,58.5C 195.833,58.5 197.167,58.5 198.5,58.5C 198.157,60.4832 198.824,61.8166 200.5,62.5C 199.699,64.0418 199.366,65.7085 199.5,67.5C 199.5,68.5 199.5,69.5 199.5,70.5C 199.5,71.5 199.5,72.5 199.5,73.5C 199.167,73.5 198.833,73.5 198.5,73.5C 197.842,70.0274 197.508,66.6941 197.5,63.5C 197.5,63.1667 197.5,62.8333 197.5,62.5C 197.5,61.5 197.5,60.5 197.5,59.5C 196.167,59.5 194.833,59.5 193.5,59.5C 193.5,57.8333 193.5,56.1667 193.5,54.5 Z"/></g>
<g><path style="opacity:0.106" fill="#094267" d="M 237.5,58.5 C 238.167,59.8333 238.833,61.1667 239.5,62.5C 239.5,62.8333 239.5,63.1667 239.5,63.5C 239.5,64.1667 239.5,64.8333 239.5,65.5C 238.833,64.8333 238.167,64.1667 237.5,63.5C 237.5,61.8333 237.5,60.1667 237.5,58.5 Z"/></g>
<g><path style="opacity:1" fill="#29a9c1" d="M 276.5,59.5 C 276.833,59.5 277.167,59.5 277.5,59.5C 278.833,60.8333 280.167,60.8333 281.5,59.5C 281.833,59.5 282.167,59.5 282.5,59.5C 283.183,61.1765 284.517,61.8432 286.5,61.5C 286.5,63.5 286.5,65.5 286.5,67.5C 286.5,69.5 286.5,71.5 286.5,73.5C 286.5,74.5 286.5,75.5 286.5,76.5C 288.167,76.5 289.833,76.5 291.5,76.5C 289.735,77.4614 287.735,77.7947 285.5,77.5C 284.515,73.3656 284.182,69.0323 284.5,64.5C 283.817,62.8235 282.483,62.1568 280.5,62.5C 275.627,62.373 273.627,64.7064 274.5,69.5C 274.5,71.8333 274.5,74.1667 274.5,76.5C 275.833,76.5 277.167,76.5 278.5,76.5C 278.5,76.8333 278.5,77.1667 278.5,77.5C 276.833,77.5 275.167,77.5 273.5,77.5C 274.103,72.3814 273.436,67.7147 271.5,63.5C 271.5,63.1667 271.5,62.8333 271.5,62.5C 274.034,62.7409 275.7,61.7409 276.5,59.5 Z"/></g>
<g><path style="opacity:1" fill="#27c2d2" d="M 159.5,59.5 C 159.833,60.8333 160.167,62.1667 160.5,63.5C 158.535,62.871 156.535,62.2043 154.5,61.5C 153.274,61.5195 152.274,61.8529 151.5,62.5C 150.391,62.5569 149.391,62.8902 148.5,63.5C 148.167,63.5 147.833,63.5 147.5,63.5C 147.511,61.9826 148.177,60.8159 149.5,60C 152.817,59.5017 156.15,59.335 159.5,59.5 Z"/></g>
<g><path style="opacity:1" fill="#2fbacf" d="M 186.5,59.5 C 186.389,60.1174 186.056,60.6174 185.5,61C 186.793,61.49 188.127,61.6567 189.5,61.5C 189.5,62.8333 189.5,64.1667 189.5,65.5C 188.527,67.9479 188.194,70.6146 188.5,73.5C 188.433,74.9587 188.766,76.2921 189.5,77.5C 189.167,77.5 188.833,77.5 188.5,77.5C 187.833,77.5 187.5,77.1667 187.5,76.5C 187.5,71.8333 187.5,67.1667 187.5,62.5C 186.5,62.5 185.5,62.5 184.5,62.5C 184.285,60.8212 184.952,59.8212 186.5,59.5 Z"/></g>
<g><path style="opacity:1" fill="#28bbcf" d="M 203.5,59.5 C 205.5,59.5 207.5,59.5 209.5,59.5C 209.443,60.609 209.11,61.609 208.5,62.5C 206.821,62.2852 205.821,62.9519 205.5,64.5C 204.833,64.5 204.5,64.8333 204.5,65.5C 203.685,64.5707 202.852,63.5707 202,62.5C 201.901,64.6526 201.067,66.3192 199.5,67.5C 199.366,65.7085 199.699,64.0418 200.5,62.5C 200.5,60.5 201.5,59.5 203.5,59.5 Z"/></g>
<g><path style="opacity:1" fill="#1cc7d7" d="M 226.5,60.5 C 227.5,60.5 228.5,60.5 229.5,60.5C 229.421,61.9305 229.754,63.2638 230.5,64.5C 230.043,65.2975 229.376,65.6309 228.5,65.5C 227.463,64.0697 226.796,62.403 226.5,60.5 Z"/></g>
<g><path style="opacity:1" fill="#2398b1" d="M 237.5,58.5 C 237.5,60.1667 237.5,61.8333 237.5,63.5C 236.122,64.2344 234.622,64.9011 233,65.5C 231.971,69.5729 231.138,73.5729 230.5,77.5C 230.5,74.1667 230.5,70.8333 230.5,67.5C 231.833,65.5 231.833,63.5 230.5,61.5C 231.5,61.1667 232.167,60.5 232.5,59.5C 233.995,57.655 235.662,57.3217 237.5,58.5 Z"/></g>
<g><path style="opacity:1" fill="#28bdd4" d="M 126.5,59.5 C 126.796,61.403 127.463,63.0697 128.5,64.5C 130.5,64.5 132.5,64.5 134.5,64.5C 132.436,65.8676 130.102,66.8676 127.5,67.5C 129.045,68.4519 130.712,68.7852 132.5,68.5C 131.081,69.4511 129.415,69.7845 127.5,69.5C 127.5,70.8333 127.5,72.1667 127.5,73.5C 127.167,73.5 126.833,73.5 126.5,73.5C 125.833,70.8333 125.167,68.1667 124.5,65.5C 125.497,65.5299 126.164,65.0299 126.5,64C 125.392,62.3227 125.392,60.8227 126.5,59.5 Z"/></g>
<g><path style="opacity:0.318" fill="#0a5674" d="M 133.5,59.5 C 132.167,59.5 130.833,59.5 129.5,59.5C 129.5,60.8333 129.5,62.1667 129.5,63.5C 131.292,63.634 132.958,63.3007 134.5,62.5C 134.5,63.1667 134.5,63.8333 134.5,64.5C 132.5,64.5 130.5,64.5 128.5,64.5C 128.5,62.5 128.5,60.5 128.5,58.5C 130.415,58.2155 132.081,58.5489 133.5,59.5 Z"/></g>
<g><path style="opacity:0.086" fill="#0a5b7a" d="M 139.5,55.5 C 141.506,57.6797 143.173,60.013 144.5,62.5C 143.234,66.4677 143.234,70.4677 144.5,74.5C 143.262,71.7387 141.928,69.072 140.5,66.5C 141.949,62.6505 141.616,58.9839 139.5,55.5 Z"/></g>
<g><path style="opacity:1" fill="#2fbdd6" d="M 209.5,59.5 C 210.791,59.2627 211.791,59.596 212.5,60.5C 212.842,61.3382 213.508,61.6716 214.5,61.5C 215.116,62.7978 215.116,63.7978 214.5,64.5C 213.609,63.8902 212.609,63.5569 211.5,63.5C 210.791,62.596 209.791,62.2627 208.5,62.5C 209.11,61.609 209.443,60.609 209.5,59.5 Z"/></g>
<g><path style="opacity:1" fill="#27b2c9" d="M 249.5,63.5 C 248.5,63.5 247.5,63.5 246.5,63.5C 244.544,65.1484 242.211,65.8151 239.5,65.5C 239.5,64.8333 239.5,64.1667 239.5,63.5C 240.167,63.5 240.833,63.5 241.5,63.5C 244.371,60.996 247.038,60.996 249.5,63.5 Z"/></g>
<g><path style="opacity:1" fill="#22c4d5" d="M 253.5,61.5 C 253.808,63.924 253.474,66.2573 252.5,68.5C 251.893,68.3764 251.56,68.0431 251.5,67.5C 251.737,66.209 251.404,65.209 250.5,64.5C 250.5,63.8333 250.167,63.5 249.5,63.5C 247.038,60.996 244.371,60.996 241.5,63.5C 241.414,62.5041 241.748,61.6708 242.5,61C 246.255,60.2446 249.922,60.4113 253.5,61.5 Z"/></g>
<g><path style="opacity:0.741" fill="#2888a6" d="M 267.5,59.5 C 267.167,59.5 266.833,59.5 266.5,59.5C 264.833,59.5 263.167,59.5 261.5,59.5C 261.5,62.1667 261.5,64.8333 261.5,67.5C 261.5,70.5 261.5,73.5 261.5,76.5C 263.265,77.4614 265.265,77.7947 267.5,77.5C 265.393,78.4682 263.059,78.8016 260.5,78.5C 260.17,71.8002 260.503,65.1335 261.5,58.5C 262.086,58.2907 262.586,57.9574 263,57.5C 264.622,58.0989 266.122,58.7656 267.5,59.5 Z"/></g>
<g><path style="opacity:1" fill="#24c3d6" d="M 289.5,61.5 C 290.167,61.5 290.5,61.8333 290.5,62.5C 290.664,65.1873 290.497,67.854 290,70.5C 289.667,70.1667 289.333,69.8333 289,69.5C 288.626,70.4162 288.126,71.2496 287.5,72C 288.737,72.2321 289.737,72.7321 290.5,73.5C 289.167,73.5 287.833,73.5 286.5,73.5C 286.5,71.5 286.5,69.5 286.5,67.5C 288.008,65.8185 289.008,63.8185 289.5,61.5 Z"/></g>
<g><path style="opacity:1" fill="#29c1d8" d="M 151.5,62.5 C 152.274,61.8529 153.274,61.5195 154.5,61.5C 156.535,62.2043 158.535,62.871 160.5,63.5C 161.833,63.5 162.5,64.1667 162.5,65.5C 161.167,65.5 159.833,65.5 158.5,65.5C 158.158,64.6618 157.492,64.3284 156.5,64.5C 155.365,62.7868 153.698,62.1201 151.5,62.5 Z"/></g>
<g><path style="opacity:0.067" fill="#065977" d="M 175.5,63.5 C 172.833,63.8333 172.833,64.1667 175.5,64.5C 177.833,64.5 180.167,64.5 182.5,64.5C 181.391,65.29 180.058,65.79 178.5,66C 179.416,66.2784 180.082,66.7784 180.5,67.5C 177.833,66.8333 175.167,66.1667 172.5,65.5C 172.5,64.5 172.5,63.5 172.5,62.5C 173.791,62.2627 174.791,62.596 175.5,63.5 Z"/></g>
<g><path style="opacity:1" fill="#23c3d6" d="M 218.5,65.5 C 217.167,65.5 215.833,65.5 214.5,65.5C 214.5,65.1667 214.5,64.8333 214.5,64.5C 215.116,63.7978 215.116,62.7978 214.5,61.5C 215.568,60.5655 216.901,60.2322 218.5,60.5C 218.5,62.1667 218.5,63.8333 218.5,65.5 Z"/></g>
<g><path style="opacity:1" fill="#2dbdd2" d="M 219.5,59.5 C 219.697,65.5451 219.363,71.5451 218.5,77.5C 217.167,77.5 215.833,77.5 214.5,77.5C 214.5,76.5 214.5,75.5 214.5,74.5C 216.38,74.7709 217.713,74.1042 218.5,72.5C 218.5,70.1667 218.5,67.8333 218.5,65.5C 218.5,63.8333 218.5,62.1667 218.5,60.5C 216.901,60.2322 215.568,60.5655 214.5,61.5C 213.508,61.6716 212.842,61.3382 212.5,60.5C 214.717,59.6314 217.05,59.298 219.5,59.5 Z"/></g>
<g><path style="opacity:1" fill="#23c3d6" d="M 280.5,62.5 C 278.852,64.4559 278.185,66.7892 278.5,69.5C 277.167,69.5 275.833,69.5 274.5,69.5C 273.627,64.7064 275.627,62.373 280.5,62.5 Z"/></g>
<g><path style="opacity:0.714" fill="#247894" d="M 92.5,63.5 C 94.4628,64.9599 96.2962,66.6266 98,68.5C 98.5847,69.9976 98.0847,70.9976 96.5,71.5C 95.5,71.5 94.5,71.5 93.5,71.5C 93.9717,68.6421 92.9717,66.6421 90.5,65.5C 91.8333,65.5 92.5,64.8333 92.5,63.5 Z"/></g>
<g><path style="opacity:1" fill="#21c3d4" d="M 168.5,62.5 C 169.5,62.5 170.5,62.5 171.5,62.5C 171.5,63.8333 171.5,65.1667 171.5,66.5C 170.5,66.5 169.5,66.5 168.5,66.5C 167.314,65.2946 167.314,63.9613 168.5,62.5 Z"/></g>
<g><path style="opacity:1" fill="#26c2d5" d="M 226.5,60.5 C 226.796,62.403 227.463,64.0697 228.5,65.5C 228.232,67.099 228.566,68.4324 229.5,69.5C 229.5,71.8333 229.5,74.1667 229.5,76.5C 228.167,76.5 226.833,76.5 225.5,76.5C 225.815,72.6286 225.482,68.9619 224.5,65.5C 224.5,64.8333 224.5,64.1667 224.5,63.5C 225.167,62.5 225.833,61.5 226.5,60.5 Z"/></g>
<g><path style="opacity:0.184" fill="#025576" d="M 246.5,63.5 C 247.5,66.1667 248.5,66.1667 249.5,63.5C 250.167,63.5 250.5,63.8333 250.5,64.5C 248.143,66.0984 245.477,67.0984 242.5,67.5C 242.167,67.5 241.833,67.5 241.5,67.5C 240.833,66.8333 240.167,66.1667 239.5,65.5C 242.211,65.8151 244.544,65.1484 246.5,63.5 Z M 246.5,63.5 C 247.5,63.5 248.5,63.5 249.5,63.5C 248.5,66.1667 247.5,66.1667 246.5,63.5 Z"/></g>
<g><path style="opacity:1" fill="#2cbfd6" d="M 266.5,59.5 C 266.5,60.5 266.5,61.5 266.5,62.5C 265.533,61.1938 264.199,60.5271 262.5,60.5C 262.472,62.5824 263.139,64.4157 264.5,66C 263.473,66.5133 262.473,67.0133 261.5,67.5C 261.5,64.8333 261.5,62.1667 261.5,59.5C 263.167,59.5 264.833,59.5 266.5,59.5 Z"/></g>
<g><path style="opacity:1" fill="#25bfce" d="M 139.5,63.5 C 139.5,64.8333 139.5,66.1667 139.5,67.5C 139.5,68.1667 139.167,68.5 138.5,68.5C 136.5,68.5 134.5,68.5 132.5,68.5C 130.712,68.7852 129.045,68.4519 127.5,67.5C 130.102,66.8676 132.436,65.8676 134.5,64.5C 136.117,63.962 137.784,63.6287 139.5,63.5 Z"/></g>
<g><path style="opacity:1" fill="#23c4d7" d="M 158.5,65.5 C 159.833,65.5 161.167,65.5 162.5,65.5C 162.5,67.5 162.5,69.5 162.5,71.5C 160.433,70.4068 159.766,70.9068 160.5,73C 159.906,73.4643 159.239,73.631 158.5,73.5C 158.5,70.8333 158.5,68.1667 158.5,65.5 Z"/></g>
<g><path style="opacity:1" fill="#30bbd2" d="M 230.5,61.5 C 231.833,63.5 231.833,65.5 230.5,67.5C 229.662,67.8417 229.328,68.5084 229.5,69.5C 228.566,68.4324 228.232,67.099 228.5,65.5C 229.376,65.6309 230.043,65.2975 230.5,64.5C 229.754,63.2638 229.421,61.9305 229.5,60.5C 228.5,60.5 227.5,60.5 226.5,60.5C 225.833,61.5 225.167,62.5 224.5,63.5C 224.5,62.1667 224.5,60.8333 224.5,59.5C 227.082,59.0254 229.082,59.6921 230.5,61.5 Z"/></g>
<g><path style="opacity:1" fill="#3da7be" d="M 59.5,65.5 C 58.8333,68.5 58.1667,71.5 57.5,74.5C 57.3345,70.4862 57.5012,66.4862 58,62.5C 58.3333,62.1667 58.6667,61.8333 59,61.5C 59.49,62.7932 59.6567,64.1266 59.5,65.5 Z"/></g>
<g><path style="opacity:1" fill="#27c1d3" d="M 144.5,62.5 C 145.609,62.5569 146.609,62.8902 147.5,63.5C 147.833,63.5 148.167,63.5 148.5,63.5C 148.253,66.9387 148.586,70.272 149.5,73.5C 147.302,73.4088 146.969,74.0755 148.5,75.5C 147.167,75.1667 145.833,74.8333 144.5,74.5C 143.234,70.4677 143.234,66.4677 144.5,62.5 Z"/></g>
<g><path style="opacity:1" fill="#28a3be" d="M 151.5,62.5 C 153.698,62.1201 155.365,62.7868 156.5,64.5C 156.5,64.8333 156.5,65.1667 156.5,65.5C 155.469,64.645 154.303,63.9783 153,63.5C 152.235,63.5699 151.735,63.9033 151.5,64.5C 150.275,65.1522 149.608,66.3189 149.5,68C 149.696,69.8784 150.029,71.7117 150.5,73.5C 150.167,73.5 149.833,73.5 149.5,73.5C 148.586,70.272 148.253,66.9387 148.5,63.5C 149.391,62.8902 150.391,62.5569 151.5,62.5 Z"/></g>
<g><path style="opacity:1" fill="#2ca7be" d="M 159.5,59.5 C 161.587,60.5846 162.92,62.2512 163.5,64.5C 163.802,67.0593 163.468,69.3926 162.5,71.5C 162.5,69.5 162.5,67.5 162.5,65.5C 162.5,64.1667 161.833,63.5 160.5,63.5C 160.167,62.1667 159.833,60.8333 159.5,59.5 Z"/></g>
<g><path style="opacity:0.578" fill="#197392" d="M 184.5,63.5 C 184.5,63.1667 184.5,62.8333 184.5,62.5C 185.5,62.5 186.5,62.5 187.5,62.5C 187.5,67.1667 187.5,71.8333 187.5,76.5C 186.676,72.6877 186.176,68.6877 186,64.5C 185.617,63.944 185.117,63.6107 184.5,63.5 Z"/></g>
<g><path style="opacity:1" fill="#25c4d6" d="M 204.5,65.5 C 204.662,67.5273 204.495,69.5273 204,71.5C 202.84,69.203 201.84,69.5363 201,72.5C 200.722,71.5842 200.222,70.9175 199.5,70.5C 199.5,69.5 199.5,68.5 199.5,67.5C 201.067,66.3192 201.901,64.6526 202,62.5C 202.852,63.5707 203.685,64.5707 204.5,65.5 Z"/></g>
<g><path style="opacity:0.861" fill="#1e829e" d="M 211.5,63.5 C 212.609,63.5569 213.609,63.8902 214.5,64.5C 214.5,64.8333 214.5,65.1667 214.5,65.5C 214.675,67.6208 214.341,69.6208 213.5,71.5C 213.167,71.5 212.833,71.5 212.5,71.5C 212.721,68.7212 212.388,66.0545 211.5,63.5 Z"/></g>
<g><path style="opacity:1" fill="#2ebbd2" d="M 250.5,64.5 C 251.404,65.209 251.737,66.209 251.5,67.5C 250.662,67.8417 250.328,68.5084 250.5,69.5C 249.167,69.5 247.833,69.5 246.5,69.5C 245.432,68.5655 244.099,68.2322 242.5,68.5C 242.5,68.1667 242.5,67.8333 242.5,67.5C 245.477,67.0984 248.143,66.0984 250.5,64.5 Z"/></g>
<g><path style="opacity:0.361" fill="#0f6787" d="M 291.5,61.5 C 292.489,66.9753 292.822,72.642 292.5,78.5C 289.941,78.8016 287.607,78.4682 285.5,77.5C 287.735,77.7947 289.735,77.4614 291.5,76.5C 291.5,75.5 291.5,74.5 291.5,73.5C 291.5,69.8333 291.5,66.1667 291.5,62.5C 291.5,62.1667 291.5,61.8333 291.5,61.5 Z"/></g>
<g><path style="opacity:1" fill="#3da5bb" d="M 69.5,66.5 C 69.5,66.8333 69.5,67.1667 69.5,67.5C 69.1961,68.1499 68.8627,68.8165 68.5,69.5C 70.1897,71.5193 71.8564,73.5193 73.5,75.5C 72.8333,75.5 72.1667,75.5 71.5,75.5C 69.8564,73.5193 68.1897,71.5193 66.5,69.5C 67.1882,68.1451 68.1882,67.1451 69.5,66.5 Z"/></g>
<g><path style="opacity:0.286" fill="#0a5073" d="M 167.5,60.5 C 166.781,62.7638 166.448,65.0971 166.5,67.5C 164.158,68.2107 163.825,69.544 165.5,71.5C 165.5,72.5 165.5,73.5 165.5,74.5C 164.5,73.1667 163.5,73.1667 162.5,74.5C 162.5,73.5 162.5,72.5 162.5,71.5C 163.468,69.3926 163.802,67.0593 163.5,64.5C 165,63.3748 166.333,62.0414 167.5,60.5 Z"/></g>
<g><path style="opacity:1" fill="#2fb1c9" d="M 167.5,60.5 C 167.833,60.5 168.167,60.5 168.5,60.5C 168.5,61.1667 168.5,61.8333 168.5,62.5C 167.314,63.9613 167.314,65.2946 168.5,66.5C 170.294,67.2329 171.961,68.2329 173.5,69.5C 174.167,69.5 174.5,69.8333 174.5,70.5C 172.435,70.4828 170.435,70.1495 168.5,69.5C 167.5,69.1667 166.833,68.5 166.5,67.5C 166.448,65.0971 166.781,62.7638 167.5,60.5 Z"/></g>
<g><path style="opacity:1" fill="#23c3d1" d="M 181.5,69.5 C 181.179,71.0481 180.179,71.7148 178.5,71.5C 177.833,71.5 177.167,71.5 176.5,71.5C 175.833,71.5 175.167,71.5 174.5,71.5C 174.5,71.1667 174.5,70.8333 174.5,70.5C 174.5,69.8333 174.167,69.5 173.5,69.5C 173.47,68.5028 173.97,67.8361 175,67.5C 177.225,68.096 179.392,68.7626 181.5,69.5 Z"/></g>
<g><path style="opacity:1" fill="#20c6d7" d="M 189.5,65.5 C 190.778,65.7822 191.778,66.4489 192.5,67.5C 192.822,69.7224 192.155,71.5557 190.5,73C 191.056,73.3826 191.389,73.8826 191.5,74.5C 190.391,74.4431 189.391,74.1098 188.5,73.5C 188.194,70.6146 188.527,67.9479 189.5,65.5 Z"/></g>
<g><path style="opacity:0.357" fill="#0e6a88" d="M 232.5,59.5 C 232.167,60.5 231.5,61.1667 230.5,61.5C 229.082,59.6921 227.082,59.0254 224.5,59.5C 224.5,60.8333 224.5,62.1667 224.5,63.5C 224.5,64.1667 224.5,64.8333 224.5,65.5C 224.5,69.5 224.5,73.5 224.5,77.5C 226.5,77.5 228.5,77.5 230.5,77.5C 228.393,78.4682 226.059,78.8016 223.5,78.5C 223.17,71.8002 223.503,65.1335 224.5,58.5C 227.114,58.0111 229.78,58.3445 232.5,59.5 Z"/></g>
<g><path style="opacity:1" fill="#27c1d6" d="M 253.5,61.5 C 255.256,62.5521 255.923,64.2188 255.5,66.5C 255.5,69.8333 255.5,73.1667 255.5,76.5C 254.167,76.5 252.833,76.5 251.5,76.5C 250.631,74.283 250.298,71.9496 250.5,69.5C 250.328,68.5084 250.662,67.8417 251.5,67.5C 251.56,68.0431 251.893,68.3764 252.5,68.5C 253.474,66.2573 253.808,63.924 253.5,61.5 Z"/></g>
<g><path style="opacity:0.031" fill="#044665" d="M 270.5,62.5 C 270.833,62.5 271.167,62.5 271.5,62.5C 271.5,62.8333 271.5,63.1667 271.5,63.5C 270.504,63.4142 269.671,63.7476 269,64.5C 268.825,69.0195 268.325,73.3528 267.5,77.5C 267.334,72.8215 267.501,68.1548 268,63.5C 268.671,62.7476 269.504,62.4142 270.5,62.5 Z"/></g>
<g><path style="opacity:0.4" fill="#125779" d="M 59.5,58.5 C 59.5,59.8333 60.1667,60.5 61.5,60.5C 60.9759,62.3057 60.3092,63.9724 59.5,65.5C 59.6567,64.1266 59.49,62.7932 59,61.5C 58.6667,61.8333 58.3333,62.1667 58,62.5C 57.5012,66.4862 57.3345,70.4862 57.5,74.5C 57.5,75.1667 57.5,75.8333 57.5,76.5C 56.3503,71.6842 56.1837,66.6842 57,61.5C 57.8518,60.4293 58.6851,59.4293 59.5,58.5 Z"/></g>
<g><path style="opacity:1" fill="#22c4d8" d="M 123.5,65.5 C 123.833,65.5 124.167,65.5 124.5,65.5C 125.167,68.1667 125.833,70.8333 126.5,73.5C 125.25,73.4226 124.417,72.756 124,71.5C 123.505,69.5273 123.338,67.5273 123.5,65.5 Z"/></g>
<g><path style="opacity:1" fill="#22c3d6" d="M 214.5,65.5 C 215.833,65.5 217.167,65.5 218.5,65.5C 218.5,67.8333 218.5,70.1667 218.5,72.5C 216.958,71.6993 215.292,71.366 213.5,71.5C 214.341,69.6208 214.675,67.6208 214.5,65.5 Z"/></g>
<g><path style="opacity:0.278" fill="#07617c" d="M 256.5,62.5 C 257.216,67.034 257.883,71.7006 258.5,76.5C 255.822,78.785 252.822,79.1183 249.5,77.5C 249.842,76.6618 250.508,76.3284 251.5,76.5C 252.919,77.4511 254.585,77.7845 256.5,77.5C 256.5,73.8333 256.5,70.1667 256.5,66.5C 256.5,65.1667 256.5,63.8333 256.5,62.5 Z"/></g>
<g><path style="opacity:1" fill="#2bafc4" d="M 266.5,59.5 C 266.833,59.5 267.167,59.5 267.5,59.5C 267.833,59.5 268.167,59.5 268.5,59.5C 268.782,60.7777 269.449,61.7777 270.5,62.5C 269.504,62.4142 268.671,62.7476 268,63.5C 267.501,68.1548 267.334,72.8215 267.5,77.5C 265.265,77.7947 263.265,77.4614 261.5,76.5C 262.833,76.5 264.167,76.5 265.5,76.5C 265.226,71.737 265.559,67.0704 266.5,62.5C 266.5,61.5 266.5,60.5 266.5,59.5 Z"/></g>
<g><path style="opacity:0.349" fill="#0a506e" d="M 69.5,65.5 C 69.5,65.8333 69.5,66.1667 69.5,66.5C 68.1882,67.1451 67.1882,68.1451 66.5,69.5C 68.1897,71.5193 69.8564,73.5193 71.5,75.5C 68.5927,74.2659 66.2593,72.2659 64.5,69.5C 65.6046,67.3886 67.2712,66.0553 69.5,65.5 Z"/></g>
<g><path style="opacity:0.067" fill="#034865" d="M 69.5,67.5 C 69.8333,67.5 70.1667,67.5 70.5,67.5C 70.3505,68.552 70.5172,69.552 71,70.5C 73.3722,72.7032 75.5389,75.0365 77.5,77.5C 77.1667,77.5 76.8333,77.5 76.5,77.5C 75.5,76.8333 74.5,76.1667 73.5,75.5C 71.8564,73.5193 70.1897,71.5193 68.5,69.5C 68.8627,68.8165 69.1961,68.1499 69.5,67.5 Z"/></g>
<g><path style="opacity:0.712" fill="#146483" d="M 132.5,68.5 C 134.5,68.5 136.5,68.5 138.5,68.5C 135.727,69.6572 132.727,70.3239 129.5,70.5C 130.993,78.019 128.326,80.3523 121.5,77.5C 121.833,77.5 122.167,77.5 122.5,77.5C 124.167,77.5 125.833,77.5 127.5,77.5C 127.5,76.1667 127.5,74.8333 127.5,73.5C 127.5,72.1667 127.5,70.8333 127.5,69.5C 129.415,69.7845 131.081,69.4511 132.5,68.5 Z"/></g>
<g><path style="opacity:1" fill="#26a4be" d="M 156.5,64.5 C 157.492,64.3284 158.158,64.6618 158.5,65.5C 158.5,68.1667 158.5,70.8333 158.5,73.5C 158.167,73.5 157.833,73.5 157.5,73.5C 156.833,73.5 156.167,73.5 155.5,73.5C 155.5,73.1667 155.5,72.8333 155.5,72.5C 156.219,70.2362 156.552,67.9029 156.5,65.5C 156.5,65.1667 156.5,64.8333 156.5,64.5 Z"/></g>
<g><path style="opacity:1" fill="#27a4bb" d="M 181.5,67.5 C 183.026,68.4919 183.693,69.9919 183.5,72C 183.693,74.0081 183.026,75.5081 181.5,76.5C 181.167,76.5 180.833,76.5 180.5,76.5C 179.559,74.9505 178.893,73.2838 178.5,71.5C 180.179,71.7148 181.179,71.0481 181.5,69.5C 181.5,68.8333 181.5,68.1667 181.5,67.5 Z"/></g>
<g><path style="opacity:1" fill="#29b9cf" d="M 205.5,64.5 C 205.065,67.8375 205.732,70.8375 207.5,73.5C 206.761,73.369 206.094,73.5357 205.5,74C 207.167,74.3333 208.833,74.6667 210.5,75C 208.406,76.3515 206.073,76.8515 203.5,76.5C 203.167,76.5 202.833,76.5 202.5,76.5C 201.167,75.8333 200.167,74.8333 199.5,73.5C 199.5,72.5 199.5,71.5 199.5,70.5C 200.222,70.9175 200.722,71.5842 201,72.5C 201.84,69.5363 202.84,69.203 204,71.5C 204.495,69.5273 204.662,67.5273 204.5,65.5C 204.5,64.8333 204.833,64.5 205.5,64.5 Z"/></g>
<g><path style="opacity:0.416" fill="#116887" d="M 208.5,62.5 C 209.791,62.2627 210.791,62.596 211.5,63.5C 208.174,63.1622 206.507,64.6622 206.5,68C 206.748,71.082 208.415,72.582 211.5,72.5C 210.432,73.4345 209.099,73.7678 207.5,73.5C 205.732,70.8375 205.065,67.8375 205.5,64.5C 205.821,62.9519 206.821,62.2852 208.5,62.5 Z"/></g>
<g><path style="opacity:1" fill="#20c4d6" d="M 213.5,71.5 C 215.292,71.366 216.958,71.6993 218.5,72.5C 217.713,74.1042 216.38,74.7709 214.5,74.5C 213.761,74.631 213.094,74.4643 212.5,74C 213.252,73.3292 213.586,72.4959 213.5,71.5 Z"/></g>
<g><path style="opacity:1" fill="#22c4d7" d="M 266.5,62.5 C 265.559,67.0704 265.226,71.737 265.5,76.5C 264.167,76.5 262.833,76.5 261.5,76.5C 261.5,73.5 261.5,70.5 261.5,67.5C 262.473,67.0133 263.473,66.5133 264.5,66C 263.139,64.4157 262.472,62.5824 262.5,60.5C 264.199,60.5271 265.533,61.1938 266.5,62.5 Z"/></g>
<g><path style="opacity:1" fill="#2fbdd3" d="M 290.5,62.5 C 290.833,62.5 291.167,62.5 291.5,62.5C 291.5,66.1667 291.5,69.8333 291.5,73.5C 291.167,73.5 290.833,73.5 290.5,73.5C 289.737,72.7321 288.737,72.2321 287.5,72C 288.126,71.2496 288.626,70.4162 289,69.5C 289.333,69.8333 289.667,70.1667 290,70.5C 290.497,67.854 290.664,65.1873 290.5,62.5 Z"/></g>
<g><path style="opacity:0.81" fill="#2f87a1" d="M 106.5,65.5 C 107.681,68.3623 107.681,71.3623 106.5,74.5C 105.778,74.9175 105.278,75.5842 105,76.5C 104.51,75.2068 104.343,73.8734 104.5,72.5C 104.5,70.5 104.5,68.5 104.5,66.5C 104.343,65.1266 104.51,63.7932 105,62.5C 105.232,63.7375 105.732,64.7375 106.5,65.5 Z"/></g>
<g><path style="opacity:0.129" fill="#06597a" d="M 151.5,64.5 C 149.331,69.1246 150.664,71.7913 155.5,72.5C 155.5,72.8333 155.5,73.1667 155.5,73.5C 153.901,74.562 152.234,74.562 150.5,73.5C 150.029,71.7117 149.696,69.8784 149.5,68C 149.608,66.3189 150.275,65.1522 151.5,64.5 Z"/></g>
<g><path style="opacity:1" fill="#26b1c8" d="M 197.5,62.5 C 197.5,62.8333 197.5,63.1667 197.5,63.5C 196.5,63.5 195.5,63.5 194.5,63.5C 193.213,67.0649 193.213,70.7316 194.5,74.5C 193.5,74.5 192.5,74.5 191.5,74.5C 191.389,73.8826 191.056,73.3826 190.5,73C 192.155,71.5557 192.822,69.7224 192.5,67.5C 192.5,65.8333 192.5,64.1667 192.5,62.5C 194.167,62.5 195.833,62.5 197.5,62.5 Z"/></g>
<g><path style="opacity:1" fill="#37b8cf" d="M 224.5,65.5 C 225.482,68.9619 225.815,72.6286 225.5,76.5C 226.833,76.5 228.167,76.5 229.5,76.5C 229.5,74.1667 229.5,71.8333 229.5,69.5C 229.328,68.5084 229.662,67.8417 230.5,67.5C 230.5,70.8333 230.5,74.1667 230.5,77.5C 228.5,77.5 226.5,77.5 224.5,77.5C 224.5,73.5 224.5,69.5 224.5,65.5 Z"/></g>
<g><path style="opacity:1" fill="#27c1d2" d="M 242.5,68.5 C 244.099,68.2322 245.432,68.5655 246.5,69.5C 246.5,69.8333 246.5,70.1667 246.5,70.5C 245.596,71.209 245.263,72.209 245.5,73.5C 244.18,74.9418 242.514,75.6085 240.5,75.5C 238.919,72.5722 239.585,70.2389 242.5,68.5 Z"/></g>
<g><path style="opacity:1" fill="#2ac0d1" d="M 122.5,63.5 C 122.833,63.5 123.167,63.5 123.5,63.5C 123.5,64.1667 123.5,64.8333 123.5,65.5C 123.338,67.5273 123.505,69.5273 124,71.5C 124.417,72.756 125.25,73.4226 126.5,73.5C 126.833,73.5 127.167,73.5 127.5,73.5C 127.5,74.8333 127.5,76.1667 127.5,77.5C 125.833,77.5 124.167,77.5 122.5,77.5C 122.5,72.8333 122.5,68.1667 122.5,63.5 Z"/></g>
<g><path style="opacity:0.769" fill="#16708a" d="M 168.5,69.5 C 170.435,70.1495 172.435,70.4828 174.5,70.5C 174.5,70.8333 174.5,71.1667 174.5,71.5C 173.508,71.3284 172.842,71.6618 172.5,72.5C 170.396,72.2011 168.396,72.5344 166.5,73.5C 167.127,74.4168 167.461,75.4168 167.5,76.5C 166.5,76.1667 165.833,75.5 165.5,74.5C 165.5,73.5 165.5,72.5 165.5,71.5C 167.027,71.573 168.027,70.9063 168.5,69.5 Z"/></g>
<g><path style="opacity:0.741" fill="#07688b" d="M 174.5,71.5 C 175.167,71.5 175.833,71.5 176.5,71.5C 176.5,72.5 176.5,73.5 176.5,74.5C 174.517,74.8432 173.183,74.1765 172.5,72.5C 173.925,74.0311 174.591,73.6977 174.5,71.5 Z"/></g>
<g><path style="opacity:1" fill="#26a8be" d="M 212.5,71.5 C 212.833,71.5 213.167,71.5 213.5,71.5C 213.586,72.4959 213.252,73.3292 212.5,74C 213.094,74.4643 213.761,74.631 214.5,74.5C 214.5,75.5 214.5,76.5 214.5,77.5C 214.5,78.8333 213.833,79.5 212.5,79.5C 212.5,78.1667 211.833,77.5 210.5,77.5C 207.941,77.8016 205.607,77.4682 203.5,76.5C 206.073,76.8515 208.406,76.3515 210.5,75C 208.833,74.6667 207.167,74.3333 205.5,74C 206.094,73.5357 206.761,73.369 207.5,73.5C 209.099,73.7678 210.432,73.4345 211.5,72.5C 211.5,71.8333 211.833,71.5 212.5,71.5 Z"/></g>
<g><path style="opacity:0.816" fill="#1e7692" d="M 241.5,67.5 C 241.833,67.5 242.167,67.5 242.5,67.5C 242.5,67.8333 242.5,68.1667 242.5,68.5C 239.585,70.2389 238.919,72.5722 240.5,75.5C 240.611,76.1174 240.944,76.6174 241.5,77C 243.81,77.4966 246.143,77.6633 248.5,77.5C 248.833,77.5 249.167,77.5 249.5,77.5C 248.207,78.1582 246.707,78.4915 245,78.5C 239.469,78.6353 237.136,75.9687 238,70.5C 238.72,68.9443 239.887,67.9443 241.5,67.5 Z"/></g>
<g><path style="opacity:1" fill="#27a6bc" d="M 280.5,62.5 C 282.483,62.1568 283.817,62.8235 284.5,64.5C 283.167,63.1667 281.833,63.1667 280.5,64.5C 279.833,68.8333 279.167,73.1667 278.5,77.5C 278.5,77.1667 278.5,76.8333 278.5,76.5C 278.5,74.1667 278.5,71.8333 278.5,69.5C 278.185,66.7892 278.852,64.4559 280.5,62.5 Z"/></g>
<g><path style="opacity:1" fill="#21c6d1" d="M 286.5,73.5 C 287.833,73.5 289.167,73.5 290.5,73.5C 290.833,73.5 291.167,73.5 291.5,73.5C 291.5,74.5 291.5,75.5 291.5,76.5C 289.833,76.5 288.167,76.5 286.5,76.5C 286.5,75.5 286.5,74.5 286.5,73.5 Z"/></g>
<g><path style="opacity:0.855" fill="#22849b" d="M 59.5,65.5 C 59.5,68.1667 59.5,70.8333 59.5,73.5C 59.6567,74.8734 59.49,76.2068 59,77.5C 58.6174,76.944 58.1174,76.6107 57.5,76.5C 57.5,75.8333 57.5,75.1667 57.5,74.5C 58.1667,71.5 58.8333,68.5 59.5,65.5 Z"/></g>
<g><path style="opacity:1" fill="#29b4ca" d="M 162.5,71.5 C 162.5,72.5 162.5,73.5 162.5,74.5C 162.167,75.5 161.5,76.1667 160.5,76.5C 159.5,76.5 158.5,76.5 157.5,76.5C 157.5,75.5 157.5,74.5 157.5,73.5C 157.833,73.5 158.167,73.5 158.5,73.5C 159.239,73.631 159.906,73.4643 160.5,73C 159.766,70.9068 160.433,70.4068 162.5,71.5 Z"/></g>
<g><path style="opacity:1" fill="#2bbed5" d="M 176.5,71.5 C 177.167,71.5 177.833,71.5 178.5,71.5C 178.893,73.2838 179.559,74.9505 180.5,76.5C 176.167,76.5 171.833,76.5 167.5,76.5C 167.461,75.4168 167.127,74.4168 166.5,73.5C 168.396,72.5344 170.396,72.2011 172.5,72.5C 173.183,74.1765 174.517,74.8432 176.5,74.5C 176.5,73.5 176.5,72.5 176.5,71.5 Z"/></g>
<g><path style="opacity:1" fill="#26c4d3" d="M 188.5,73.5 C 189.391,74.1098 190.391,74.4431 191.5,74.5C 192.5,74.5 193.5,74.5 194.5,74.5C 196.048,74.8212 196.715,75.8212 196.5,77.5C 194.167,77.5 191.833,77.5 189.5,77.5C 188.766,76.2921 188.433,74.9587 188.5,73.5 Z"/></g>
<g><path style="opacity:0.671" fill="#257895" d="M 93.5,71.5 C 94.5,71.5 95.5,71.5 96.5,71.5C 93.7891,75.2119 90.4558,78.2119 86.5,80.5C 86.1583,79.6618 85.4916,79.3284 84.5,79.5C 87.0745,76.3467 90.0745,73.6801 93.5,71.5 Z"/></g>
<g><path style="opacity:1" fill="#28c3d2" d="M 149.5,73.5 C 149.833,73.5 150.167,73.5 150.5,73.5C 152.234,74.562 153.901,74.562 155.5,73.5C 156.167,73.5 156.833,73.5 157.5,73.5C 157.5,74.5 157.5,75.5 157.5,76.5C 154.287,76.81 151.287,76.4767 148.5,75.5C 146.969,74.0755 147.302,73.4088 149.5,73.5 Z"/></g>
<g><path style="opacity:0.855" fill="#1c6a8c" d="M 194.5,63.5 C 194.183,66.5719 194.516,69.5719 195.5,72.5C 196.417,73.1272 197.417,73.4606 198.5,73.5C 198.5,75.1667 198.5,76.8333 198.5,78.5C 195.093,79.2678 191.76,78.9345 188.5,77.5C 188.833,77.5 189.167,77.5 189.5,77.5C 191.833,77.5 194.167,77.5 196.5,77.5C 196.715,75.8212 196.048,74.8212 194.5,74.5C 193.213,70.7316 193.213,67.0649 194.5,63.5 Z"/></g>
<g><path style="opacity:1" fill="#1b97b3" d="M 246.5,69.5 C 247.833,69.5 249.167,69.5 250.5,69.5C 250.298,71.9496 250.631,74.283 251.5,76.5C 250.508,76.3284 249.842,76.6618 249.5,77.5C 249.167,77.5 248.833,77.5 248.5,77.5C 247.789,75.9699 246.789,74.6366 245.5,73.5C 245.263,72.209 245.596,71.209 246.5,70.5C 246.5,70.1667 246.5,69.8333 246.5,69.5 Z M 246.5,70.5 C 249.957,70.6672 250.29,71.6672 247.5,73.5C 246.614,72.675 246.281,71.675 246.5,70.5 Z"/></g>
<g><path style="opacity:0.855" fill="#2d89a4" d="M 71.5,75.5 C 72.1667,75.5 72.8333,75.5 73.5,75.5C 74.5,76.1667 75.5,76.8333 76.5,77.5C 77.5,78.8333 78.5,80.1667 79.5,81.5C 79.5,82.1667 79.5,82.8333 79.5,83.5C 76.5,81.1667 73.8333,78.5 71.5,75.5 Z"/></g>
<g><path style="opacity:0.89" fill="#156681" d="M 104.5,72.5 C 104.343,73.8734 104.51,75.2068 105,76.5C 105.278,75.5842 105.778,74.9175 106.5,74.5C 106.598,76.5529 105.931,78.2196 104.5,79.5C 104.591,77.3023 103.925,76.9689 102.5,78.5C 102.595,76.2143 103.262,74.2143 104.5,72.5 Z"/></g>
<g><path style="opacity:1" fill="#299db7" d="M 144.5,74.5 C 145.833,74.8333 147.167,75.1667 148.5,75.5C 151.287,76.4767 154.287,76.81 157.5,76.5C 158.5,76.5 159.5,76.5 160.5,76.5C 160.082,77.2216 159.416,77.7216 158.5,78C 155.167,78.6667 151.833,78.6667 148.5,78C 146.676,77.34 145.343,76.1733 144.5,74.5 Z"/></g>
<g><path style="opacity:1" fill="#299db5" d="M 167.5,76.5 C 171.833,76.5 176.167,76.5 180.5,76.5C 180.833,76.5 181.167,76.5 181.5,76.5C 176.95,80.0403 172.283,80.0403 167.5,76.5 Z"/></g>
<g><path style="opacity:1" fill="#2dbed9" d="M 245.5,73.5 C 246.789,74.6366 247.789,75.9699 248.5,77.5C 246.143,77.6633 243.81,77.4966 241.5,77C 240.944,76.6174 240.611,76.1174 240.5,75.5C 242.514,75.6085 244.18,74.9418 245.5,73.5 Z"/></g>
<g><path style="opacity:1" fill="#38b6ce" d="M 255.5,66.5 C 255.833,66.5 256.167,66.5 256.5,66.5C 256.5,70.1667 256.5,73.8333 256.5,77.5C 254.585,77.7845 252.919,77.4511 251.5,76.5C 252.833,76.5 254.167,76.5 255.5,76.5C 255.5,73.1667 255.5,69.8333 255.5,66.5 Z"/></g>
<g><path style="opacity:0.039" fill="#0c4d6a" d="M 76.5,77.5 C 76.8333,77.5 77.1667,77.5 77.5,77.5C 78.8149,78.4756 80.1482,79.4756 81.5,80.5C 82.4168,79.8728 83.4168,79.5394 84.5,79.5C 83.5009,82.1741 81.8342,82.8408 79.5,81.5C 78.5,80.1667 77.5,78.8333 76.5,77.5 Z"/></g>
<g><path style="opacity:0.212" fill="#126082" d="M 271.5,63.5 C 273.436,67.7147 274.103,72.3814 273.5,77.5C 275.167,77.5 276.833,77.5 278.5,77.5C 279.167,73.1667 279.833,68.8333 280.5,64.5C 280.5,69.1667 280.5,73.8333 280.5,78.5C 277.002,79.0453 274.002,78.212 271.5,76C 272.803,71.834 272.803,67.6674 271.5,63.5 Z"/></g>
<g><path style="opacity:1" fill="#23c4d6" d="M 274.5,69.5 C 275.833,69.5 277.167,69.5 278.5,69.5C 278.5,71.8333 278.5,74.1667 278.5,76.5C 277.167,76.5 275.833,76.5 274.5,76.5C 274.5,74.1667 274.5,71.8333 274.5,69.5 Z"/></g>
<g><path style="opacity:0.882" fill="#1b6886" d="M 202.5,76.5 C 202.833,76.5 203.167,76.5 203.5,76.5C 205.607,77.4682 207.941,77.8016 210.5,77.5C 209.167,78.1667 207.833,78.8333 206.5,79.5C 206.167,79.5 205.833,79.5 205.5,79.5C 202.324,77.7271 200.657,78.7271 200.5,82.5C 199.326,81.4863 198.66,80.153 198.5,78.5C 200.153,78.3404 201.486,77.6737 202.5,76.5 Z"/></g>
<g><path style="opacity:0.851" fill="#247390" d="M 59.5,73.5 C 60.8234,76.4572 62.1568,79.4572 63.5,82.5C 63.4142,83.4959 63.7476,84.3292 64.5,85C 63.9056,85.4643 63.2389,85.631 62.5,85.5C 60.0764,82.9922 58.4097,79.9922 57.5,76.5C 58.1174,76.6107 58.6174,76.944 59,77.5C 59.49,76.2068 59.6567,74.8734 59.5,73.5 Z"/></g>
<g><path style="opacity:0.965" fill="#2a819e" d="M 104.5,79.5 C 104.25,81.674 103.25,83.3406 101.5,84.5C 101.672,83.5084 101.338,82.8417 100.5,82.5C 100.66,80.847 101.326,79.5137 102.5,78.5C 103.925,76.9689 104.591,77.3023 104.5,79.5 Z"/></g>
<g><path style="opacity:1" fill="#27c1d5" d="M 214.5,77.5 C 215.833,77.5 217.167,77.5 218.5,77.5C 218.5,78.5 218.5,79.5 218.5,80.5C 216.058,80.1192 215.391,80.7859 216.5,82.5C 216.043,83.2975 215.376,83.6309 214.5,83.5C 214.179,81.9519 213.179,81.2852 211.5,81.5C 211.833,80.8333 212.167,80.1667 212.5,79.5C 213.833,79.5 214.5,78.8333 214.5,77.5 Z"/></g>
<g><path style="opacity:1" fill="#1f7c9a" d="M 219.5,59.5 C 219.833,59.5 220.167,59.5 220.5,59.5C 221.653,65.6529 221.82,71.9863 221,78.5C 218.183,84.6614 213.35,87.328 206.5,86.5C 208.5,85.8333 210.5,85.1667 212.5,84.5C 213.167,84.1667 213.833,83.8333 214.5,83.5C 215.376,83.6309 216.043,83.2975 216.5,82.5C 215.391,80.7859 216.058,80.1192 218.5,80.5C 218.5,79.5 218.5,78.5 218.5,77.5C 219.363,71.5451 219.697,65.5451 219.5,59.5 Z"/></g>
<g><path style="opacity:1" fill="#2aafc2" d="M 205.5,79.5 C 205.263,80.791 205.596,81.791 206.5,82.5C 207.99,84.2798 209.99,84.9465 212.5,84.5C 210.5,85.1667 208.5,85.8333 206.5,86.5C 203.853,86.0713 201.853,84.7379 200.5,82.5C 200.657,78.7271 202.324,77.7271 205.5,79.5 Z"/></g>
<g><path style="opacity:1" fill="#25a8c1" d="M 205.5,79.5 C 205.833,79.5 206.167,79.5 206.5,79.5C 208.451,80.6414 210.451,80.6414 212.5,79.5C 212.167,80.1667 211.833,80.8333 211.5,81.5C 209.958,82.3007 208.292,82.634 206.5,82.5C 205.596,81.791 205.263,80.791 205.5,79.5 Z"/></g>
<g><path style="opacity:0.906" fill="#328ea7" d="M 84.5,79.5 C 85.4916,79.3284 86.1583,79.6618 86.5,80.5C 85.1879,82.4788 83.5212,84.1455 81.5,85.5C 80.4777,85.1445 79.811,84.4778 79.5,83.5C 79.5,82.8333 79.5,82.1667 79.5,81.5C 81.8342,82.8408 83.5009,82.1741 84.5,79.5 Z"/></g>
<g><path style="opacity:1" fill="#22c5d2" d="M 211.5,81.5 C 213.179,81.2852 214.179,81.9519 214.5,83.5C 213.833,83.8333 213.167,84.1667 212.5,84.5C 209.99,84.9465 207.99,84.2798 206.5,82.5C 208.292,82.634 209.958,82.3007 211.5,81.5 Z"/></g>
<g><path style="opacity:0.604" fill="#1b6d88" d="M 63.5,82.5 C 65.5,83.8333 67.1667,85.5 68.5,87.5C 66.3023,87.4088 65.9689,88.0755 67.5,89.5C 65.2512,88.9202 63.5846,87.5869 62.5,85.5C 63.2389,85.631 63.9056,85.4643 64.5,85C 63.7476,84.3292 63.4142,83.4959 63.5,82.5 Z"/></g>
<g><path style="opacity:0.922" fill="#2886a0" d="M 100.5,82.5 C 101.338,82.8417 101.672,83.5084 101.5,84.5C 100.5,86.1667 99.1667,87.5 97.5,88.5C 96.5084,88.6716 95.8417,88.3382 95.5,87.5C 96.8333,85.5 98.5,83.8333 100.5,82.5 Z"/></g>
<g><path style="opacity:0.882" fill="#2b859d" d="M 68.5,87.5 C 70.2838,87.8925 71.9505,88.5592 73.5,89.5C 73.6309,90.3764 73.2975,91.0431 72.5,91.5C 71.2638,90.7542 69.9305,90.4208 68.5,90.5C 67.8333,90.5 67.5,90.1667 67.5,89.5C 65.9689,88.0755 66.3023,87.4088 68.5,87.5 Z"/></g>
<g><path style="opacity:0.89" fill="#1e728e" d="M 95.5,87.5 C 95.8417,88.3382 96.5084,88.6716 97.5,88.5C 95.6644,90.588 93.3311,91.9213 90.5,92.5C 91.463,91.6365 91.463,90.9698 90.5,90.5C 88.9291,91.3094 87.2624,91.6427 85.5,91.5C 88.6777,89.9914 92.0111,88.658 95.5,87.5 Z"/></g>
<g><path style="opacity:0.882" fill="#145a7b" d="M 73.5,89.5 C 75.6976,89.8751 77.6976,90.5418 79.5,91.5C 77.8008,91.3398 76.1341,91.5065 74.5,92C 78.7305,93.2899 83.0638,93.7899 87.5,93.5C 80.7724,95.3097 74.4391,94.3097 68.5,90.5C 69.9305,90.4208 71.2638,90.7542 72.5,91.5C 73.2975,91.0431 73.6309,90.3764 73.5,89.5 Z"/></g>
<g><path style="opacity:0.557" fill="#298ba3" d="M 90.5,92.5 C 89.791,93.404 88.791,93.7373 87.5,93.5C 83.0638,93.7899 78.7305,93.2899 74.5,92C 76.1341,91.5065 77.8008,91.3398 79.5,91.5C 81.5,91.5 83.5,91.5 85.5,91.5C 87.2624,91.6427 88.9291,91.3094 90.5,90.5C 91.463,90.9698 91.463,91.6365 90.5,92.5 Z"/></g>
</svg>
