<?xml version="1.0" encoding="UTF-8"?>
<!DOCTYPE svg PUBLIC "-//W3C//DTD SVG 1.1//EN" "http://www.w3.org/Graphics/SVG/1.1/DTD/svg11.dtd">
<svg xmlns="http://www.w3.org/2000/svg" version="1.1" width="171px" height="36px" style="shape-rendering:geometricPrecision; text-rendering:geometricPrecision; image-rendering:optimizeQuality; fill-rule:evenodd; clip-rule:evenodd" xmlns:xlink="http://www.w3.org/1999/xlink">
<g><path style="opacity:1" fill="#0b345a" d="M -0.5,-0.5 C 56.5,-0.5 113.5,-0.5 170.5,-0.5C 170.5,11.5 170.5,23.5 170.5,35.5C 113.5,35.5 56.5,35.5 -0.5,35.5C -0.5,23.5 -0.5,11.5 -0.5,-0.5 Z"/></g>
<g><path style="opacity:1" fill="#126181" d="M 35.5,10.5 C 40.8365,10.2509 45.8365,11.4175 50.5,14C 52.787,16.0483 52.9536,18.2149 51,20.5C 42.981,26.1351 35.3143,25.8018 28,19.5C 27.3333,18.1667 27.3333,16.8333 28,15.5C 30.1699,13.1769 32.6699,11.5103 35.5,10.5 Z"/></g>
<g><path style="opacity:1" fill="#0b365c" d="M 33.5,12.5 C 37.5138,12.3345 41.5138,12.5012 45.5,13C 52.1667,16 52.1667,19 45.5,22C 41.5,22.6667 37.5,22.6667 33.5,22C 26.9824,18.86 26.9824,15.6933 33.5,12.5 Z"/></g>
<g><path style="opacity:1" fill="#1fb8cc" d="M 59.5,13.5 C 62.5,13.5 65.5,13.5 68.5,13.5C 68.67,14.8221 68.3366,15.9887 67.5,17C 64.74,17.6741 62.0733,18.5075 59.5,19.5C 59.5,17.5 59.5,15.5 59.5,13.5 Z"/></g>
<g><path style="opacity:1" fill="#115879" d="M 87.5,14.5 C 88.5,14.5 89.5,14.5 90.5,14.5C 90.5,15.1667 90.5,15.8333 90.5,16.5C 89.8333,17.5 89.1667,18.5 88.5,19.5C 88.634,17.7085 88.3007,16.0418 87.5,14.5 Z"/></g>
<g><path style="opacity:1" fill="#1a97af" d="M 106.5,20.5 C 106.5,18.8333 106.5,17.1667 106.5,15.5C 105.209,15.2627 104.209,15.596 103.5,16.5C 104.434,17.5676 104.768,18.901 104.5,20.5C 102.265,20.2053 100.265,20.5386 98.5,21.5C 97.8333,21.5 97.5,21.1667 97.5,20.5C 98.0715,19.0267 98.0715,17.36 97.5,15.5C 100.728,14.5863 104.061,14.2529 107.5,14.5C 107.795,16.7354 107.461,18.7354 106.5,20.5 Z"/></g>
<g><path style="opacity:1" fill="#1990aa" d="M 109.5,15.5 C 111.364,14.2072 113.364,14.2072 115.5,15.5C 115.043,16.2975 114.376,16.6309 113.5,16.5C 112.432,15.5655 111.099,15.2322 109.5,15.5 Z"/></g>
<g><path style="opacity:1" fill="#126282" d="M 62.5,14.5 C 63.675,14.281 64.675,14.6143 65.5,15.5C 63.9483,16.7979 62.9483,16.4646 62.5,14.5 Z"/></g>
<g><path style="opacity:1" fill="#20bdd0" d="M 103.5,16.5 C 104.209,15.596 105.209,15.2627 106.5,15.5C 106.5,17.1667 106.5,18.8333 106.5,20.5C 103.946,21.388 101.279,21.7214 98.5,21.5C 100.265,20.5386 102.265,20.2053 104.5,20.5C 104.768,18.901 104.434,17.5676 103.5,16.5 Z"/></g>
<g><path style="opacity:1" fill="#167e9a" d="M 141.5,15.5 C 139.824,16.1834 139.157,17.5168 139.5,19.5C 138.9,18.0998 137.9,17.0998 136.5,16.5C 135.5,15.1667 134.5,15.1667 133.5,16.5C 132.5,16.5 131.5,16.5 130.5,16.5C 129.791,15.596 128.791,15.2627 127.5,15.5C 127.5,16.8333 127.5,18.1667 127.5,19.5C 126.549,18.0813 126.216,16.4147 126.5,14.5C 131.695,14.1795 136.695,14.5128 141.5,15.5 Z"/></g>
<g><path style="opacity:1" fill="#20bbcf" d="M 136.5,16.5 C 136.5,17.5 136.5,18.5 136.5,19.5C 135.5,19.5 134.5,19.5 133.5,19.5C 133.5,18.5 133.5,17.5 133.5,16.5C 134.5,15.1667 135.5,15.1667 136.5,16.5 Z"/></g>
<g><path style="opacity:1" fill="#20bccf" d="M 141.5,15.5 C 142.434,16.5676 142.768,17.901 142.5,19.5C 141.5,19.5 140.5,19.5 139.5,19.5C 139.157,17.5168 139.824,16.1834 141.5,15.5 Z"/></g>
<g><path style="opacity:1" fill="#126584" d="M 36.5,19.5 C 34.6536,19.7778 33.3202,19.1112 32.5,17.5C 37.3729,12.2806 42.3729,12.2806 47.5,17.5C 45.1071,19.3631 42.4404,20.6965 39.5,21.5C 37.9623,21.5466 36.9623,20.8799 36.5,19.5 Z"/></g>
<g><path style="opacity:1" fill="#0b375c" d="M 36.5,19.5 C 35.9094,18.8485 35.2427,18.1818 34.5,17.5C 37.8333,13.5 41.1667,13.5 44.5,17.5C 42.174,20.0203 39.5074,20.687 36.5,19.5 Z"/></g>
<g><path style="opacity:1" fill="#20bccf" d="M 109.5,15.5 C 111.099,15.2322 112.432,15.5655 113.5,16.5C 112.596,17.209 112.263,18.209 112.5,19.5C 111.5,19.5 110.5,19.5 109.5,19.5C 109.5,18.1667 109.5,16.8333 109.5,15.5 Z"/></g>
<g><path style="opacity:1" fill="#198da7" d="M 124.5,15.5 C 123.5,15.5 122.5,15.5 121.5,15.5C 121.719,16.675 121.386,17.675 120.5,18.5C 119.264,17.7542 117.93,17.4208 116.5,17.5C 116.414,16.5041 116.748,15.6708 117.5,15C 120.039,14.2042 122.372,14.3709 124.5,15.5 Z"/></g>
<g><path style="opacity:1" fill="#136b89" d="M 81.5,15.5 C 82.2297,17.045 83.563,17.8784 85.5,18C 83.9419,18.21 82.6085,18.71 81.5,19.5C 80.8333,19.1667 80.1667,18.8333 79.5,18.5C 79.5,17.8333 79.5,17.1667 79.5,16.5C 80.1667,16.1667 80.8333,15.8333 81.5,15.5 Z"/></g>
<g><path style="opacity:1" fill="#0f4a6d" d="M 103.5,16.5 C 103.052,18.4646 102.052,18.7979 100.5,17.5C 101.325,16.6143 102.325,16.281 103.5,16.5 Z"/></g>
<g><path style="opacity:1" fill="#1eadc2" d="M 124.5,15.5 C 125.434,16.5676 125.768,17.901 125.5,19.5C 121.988,20.0545 118.988,19.3878 116.5,17.5C 117.93,17.4208 119.264,17.7542 120.5,18.5C 121.386,17.675 121.719,16.675 121.5,15.5C 122.5,15.5 123.5,15.5 124.5,15.5 Z"/></g>
<g><path style="opacity:1" fill="#1da9bf" d="M 79.5,16.5 C 79.5,17.1667 79.5,17.8333 79.5,18.5C 76.592,19.5691 73.592,19.7358 70.5,19C 69.6558,15.99 70.9891,14.49 74.5,14.5C 76.5566,14.4357 78.2233,15.1024 79.5,16.5 Z"/></g>
<g><path style="opacity:1" fill="#0e4366" d="M 73.5,16.5 C 74.675,16.281 75.675,16.6143 76.5,17.5C 74.9483,18.7979 73.9483,18.4646 73.5,16.5 Z"/></g>
<g><path style="opacity:1" fill="#1da7bd" d="M 87.5,14.5 C 88.3007,16.0418 88.634,17.7085 88.5,19.5C 86.1667,19.5 83.8333,19.5 81.5,19.5C 82.6085,18.71 83.9419,18.21 85.5,18C 83.563,17.8784 82.2297,17.045 81.5,15.5C 83.2646,14.5386 85.2646,14.2053 87.5,14.5 Z"/></g>
<g><path style="opacity:1" fill="#1fb4c9" d="M 94.5,14.5 C 94.2865,16.1439 94.6198,17.6439 95.5,19C 94.552,19.4828 93.552,19.6495 92.5,19.5C 91.8333,18.5 91.1667,17.5 90.5,16.5C 90.5,15.8333 90.5,15.1667 90.5,14.5C 91.9613,13.3143 93.2946,13.3143 94.5,14.5 Z"/></g>
<g><path style="opacity:1" fill="#1fb7cb" d="M 130.5,16.5 C 130.5,17.5 130.5,18.5 130.5,19.5C 129.5,19.5 128.5,19.5 127.5,19.5C 127.5,18.1667 127.5,16.8333 127.5,15.5C 128.791,15.2627 129.791,15.596 130.5,16.5 Z"/></g>
<g><path style="opacity:1" fill="#115677" d="M 94.5,14.5 C 95.609,14.5569 96.609,14.8902 97.5,15.5C 98.0715,17.36 98.0715,19.0267 97.5,20.5C 95.5853,20.7845 93.9187,20.4511 92.5,19.5C 93.552,19.6495 94.552,19.4828 95.5,19C 94.6198,17.6439 94.2865,16.1439 94.5,14.5 Z"/></g>
</svg>
