<svg version="1.1" id="Layer_1" xmlns="http://www.w3.org/2000/svg" xmlns:xlink="http://www.w3.org/1999/xlink" x="0px" y="0px"
	 width="100%" viewBox="0 0 779 320" enable-background="new 0 0 779 320" xml:space="preserve">
<path fill="#000000" opacity="1.000000" stroke="none" 
	d="
M634.000000,321.000000 
	C422.666656,321.000000 211.833328,321.000000 1.000000,321.000000 
	C1.000000,214.333328 1.000000,107.666664 1.000000,1.000000 
	C260.666656,1.000000 520.333313,1.000000 780.000000,1.000000 
	C780.000000,107.666664 780.000000,214.333328 780.000000,321.000000 
	C731.500000,321.000000 683.000000,321.000000 634.000000,321.000000 
M625.020996,151.259827 
	C626.051941,147.969681 627.790466,145.400696 631.721375,146.033310 
	C635.376709,146.621628 636.307190,149.585342 636.571960,152.714584 
	C636.865906,156.189178 636.995850,159.683807 637.042053,163.171768 
	C637.115906,168.757019 637.061829,174.343979 637.061829,179.736420 
	C641.097900,180.013687 644.342773,180.335587 647.594238,180.427094 
	C649.979431,180.494202 652.370605,180.428802 652.316650,176.898041 
	C652.174194,167.574936 652.483215,158.232559 651.989685,148.930893 
	C651.544067,140.531204 645.519592,135.516693 637.033569,135.403107 
	C631.276367,135.326050 626.705688,137.403229 624.123108,142.820969 
	C613.627625,133.708023 605.605347,132.983124 598.902893,139.460892 
	C596.797302,138.407471 595.071045,137.043076 593.165710,136.712875 
	C590.578125,136.264496 587.845703,136.736649 585.190002,136.574341 
	C582.546875,136.412827 581.622620,137.573105 581.660217,140.074371 
	C581.725342,144.405060 581.642212,148.737823 581.638855,153.069733 
	C581.631958,161.868088 581.636780,170.666458 581.636780,179.658905 
	C587.091919,179.658905 591.835876,179.658905 596.900330,179.658905 
	C596.900330,171.918961 596.775757,164.447617 596.968140,156.984436 
	C597.035095,154.384323 597.381653,151.541641 598.549133,149.304855 
	C599.367798,147.736328 601.916748,145.982971 603.469971,146.169495 
	C605.286804,146.387665 607.736328,148.316940 608.343994,150.052643 
	C609.353027,152.934860 609.298950,156.251526 609.357422,159.391434 
	C609.483276,166.156342 609.396057,172.925217 609.396057,179.709793 
	C614.771118,179.709793 619.387390,179.709793 624.870361,179.709793 
	C624.870361,170.371750 624.870361,161.250198 625.020996,151.259827 
M457.893005,178.707397 
	C464.579132,180.630844 470.912781,180.147934 476.618103,175.536911 
	C477.681061,180.764236 476.516846,183.739502 472.975891,185.475876 
	C468.950287,187.449905 463.401550,186.726791 460.887512,183.951096 
	C460.064240,183.042160 459.167084,181.569626 458.226624,181.506638 
	C454.167877,181.234833 450.080566,181.390350 445.995117,181.390350 
	C446.262512,188.730255 449.576935,193.552429 455.469238,195.709747 
	C463.247253,198.557465 471.102417,198.556656 478.965820,196.111969 
	C484.666931,194.339508 489.115387,190.855545 490.775879,185.055099 
	C491.978638,180.853714 492.490295,176.343613 492.580719,171.956161 
	C492.819580,160.363968 492.661621,148.763596 492.661621,136.136520 
	C486.827148,137.891754 481.124695,134.145538 476.544861,138.824097 
	C469.759857,134.387177 462.628754,134.208954 455.691528,137.675735 
	C446.871185,142.083572 444.231812,150.264496 444.517731,159.429153 
	C444.791351,168.198349 448.267181,175.218277 457.893005,178.707397 
M273.003784,151.500000 
	C273.003784,160.911697 273.003784,170.323395 273.003784,179.932190 
	C275.794922,179.932190 278.117645,179.932190 280.440338,179.932190 
	C282.837006,179.932190 285.233643,179.932190 287.805511,179.932190 
	C287.805511,174.701782 288.026398,170.370056 287.741272,166.071884 
	C287.474518,162.051056 288.685669,160.320602 292.990540,160.589508 
	C296.430481,160.804367 299.947296,160.354919 303.387665,159.888199 
	C312.553406,158.644714 318.148621,152.059677 318.398743,142.469559 
	C318.633820,133.455795 313.156921,125.753479 304.158325,124.950653 
	C293.998138,124.044205 283.694855,124.741798 273.003632,124.741798 
	C273.003632,133.282990 273.003632,141.891495 273.003784,151.500000 
M166.211990,213.214035 
	C167.176636,213.462173 168.143356,213.702576 169.105637,213.959595 
	C191.480667,219.936005 214.369919,212.487915 228.099396,194.761398 
	C242.144318,176.627625 243.373505,152.512527 231.295044,132.066650 
	C219.108337,111.437561 192.292145,100.470474 168.940323,107.556152 
	C145.637436,114.626984 129.639297,134.089417 128.707596,159.057266 
	C127.814590,182.987839 142.158524,203.582794 166.211990,213.214035 
M567.031555,138.341431 
	C551.357544,130.624252 533.061829,138.864304 534.588196,151.769394 
	C537.964905,151.769394 541.445129,152.015717 544.860352,151.651779 
	C546.285522,151.499893 547.536865,149.986557 548.930725,149.205460 
	C550.893433,148.105530 552.978882,146.158722 554.897461,146.286896 
	C558.041016,146.496887 558.896362,149.178787 558.221436,152.089737 
	C552.782349,153.224808 547.508118,153.950821 542.471436,155.466339 
	C535.311707,157.620697 532.159546,163.276306 533.107239,171.032562 
	C533.745300,176.254868 538.738159,181.036865 544.580994,180.949417 
	C549.255737,180.879471 553.912964,179.639053 557.983582,179.009979 
	C563.450317,179.516418 568.589233,179.992493 574.516846,180.541626 
	C573.973999,168.743607 573.766602,157.509811 572.718933,146.354935 
	C572.467407,143.676758 569.424438,141.260757 567.031555,138.341431 
M320.214752,155.809387 
	C318.983032,167.433990 325.139709,178.274536 336.786133,180.424118 
	C346.752167,182.263550 356.379913,181.244766 362.767303,172.175995 
	C368.403809,164.173447 368.451141,155.195206 364.178192,146.574631 
	C360.095245,138.337357 349.004211,133.833115 338.817078,135.547150 
	C328.595032,137.267075 322.461914,143.674881 320.214752,155.809387 
M395.410370,153.328476 
	C393.374512,152.616135 391.192627,152.156815 389.357056,151.097443 
	C388.239014,150.452179 387.359009,148.969437 386.978973,147.683502 
	C386.830719,147.181931 388.363770,145.542038 389.102081,145.560776 
	C390.415100,145.594101 391.796326,146.349304 392.980560,147.076767 
	C394.132202,147.784180 395.019684,149.528778 396.115051,149.612259 
	C400.185852,149.922485 404.294525,149.735962 410.240204,149.735962 
	C407.634338,145.660217 406.308655,142.383743 403.975708,140.167725 
	C397.470093,133.988297 383.730591,133.834427 376.616333,139.322189 
	C369.356384,144.922333 369.126801,157.194641 379.462433,160.952927 
	C383.514587,162.426407 387.772461,163.397995 391.684601,165.158340 
	C393.055237,165.775085 393.670776,168.069901 394.631104,169.598450 
	C392.737122,170.151962 390.792145,171.249527 388.966125,171.078308 
	C387.625458,170.952591 386.458862,169.141312 385.180023,168.124817 
	C384.338104,167.455612 383.458282,166.366150 382.554504,166.323044 
	C378.459564,166.127716 374.350037,166.237595 370.245758,166.237595 
	C369.873779,166.671616 369.501801,167.105652 369.129852,167.539673 
	C371.096222,170.576523 372.535583,174.200409 375.134094,176.533066 
	C381.336212,182.100647 396.322388,182.780472 403.479279,178.373672 
	C407.926178,175.635529 410.218201,171.801178 409.928558,166.361969 
	C409.644775,161.031677 406.795319,157.745621 402.288483,155.625366 
	C400.350403,154.713608 398.219635,154.211334 395.410370,153.328476 
M417.735992,151.091675 
	C417.882111,157.722626 417.751709,164.374588 418.253021,170.978561 
	C418.741821,177.417664 421.161011,180.016479 427.450226,180.751938 
	C431.976196,181.281219 436.613892,180.855011 441.059052,180.855011 
	C442.424866,172.996948 442.393860,173.071442 435.903900,170.369263 
	C434.865967,169.937103 433.573608,168.517807 433.543579,167.520432 
	C433.337128,160.658508 433.435059,153.787415 433.435059,146.780136 
	C436.908417,146.577682 439.657898,146.417435 442.433838,146.255630 
	C442.433838,142.990921 442.433838,140.232040 442.433838,137.635880 
	C439.213287,136.906509 435.105682,137.166504 433.670868,135.333862 
	C432.070251,133.289520 432.898193,129.343781 432.660370,126.106873 
	C427.817413,126.106873 423.117737,126.106873 417.936615,126.106873 
	C417.936615,129.799438 417.936615,133.042297 417.936615,136.363831 
	C415.525024,136.679932 413.585449,136.934174 411.523834,137.204407 
	C411.523834,140.314209 411.523834,143.209244 411.523834,145.869202 
	C413.791779,147.521332 418.766632,144.550247 417.735992,151.091675 
M503.161285,136.647247 
	C502.453735,137.709152 501.181732,138.745392 501.132080,139.837219 
	C500.852356,145.989609 500.828003,152.155151 500.790375,158.316635 
	C500.747009,165.420700 500.780334,172.525208 500.780334,179.790588 
	C506.161011,179.790588 510.885681,179.790588 515.820496,179.790588 
	C515.820496,176.677399 515.801819,174.017563 515.825623,171.358124 
	C515.851013,168.527649 515.775024,165.686768 515.988831,162.869080 
	C516.933533,150.424042 517.261414,150.101776 529.345093,148.036743 
	C529.649780,147.984695 529.919312,147.727570 530.359070,147.479172 
	C532.683960,130.503891 525.589294,133.483292 516.276855,141.151291 
	C515.931519,139.605362 515.626892,138.241806 515.262817,136.612076 
	C511.353455,136.612076 507.702942,136.612076 503.161285,136.647247 
z"/>
<path fill="#26BBCE" opacity="1.000000" stroke="none" 
	d="
M624.945679,151.694244 
	C624.870361,161.250198 624.870361,170.371750 624.870361,179.709793 
	C619.387390,179.709793 614.771118,179.709793 609.396057,179.709793 
	C609.396057,172.925217 609.483276,166.156342 609.357422,159.391434 
	C609.298950,156.251526 609.353027,152.934860 608.343994,150.052643 
	C607.736328,148.316940 605.286804,146.387665 603.469971,146.169495 
	C601.916748,145.982971 599.367798,147.736328 598.549133,149.304855 
	C597.381653,151.541641 597.035095,154.384323 596.968140,156.984436 
	C596.775757,164.447617 596.900330,171.918961 596.900330,179.658905 
	C591.835876,179.658905 587.091919,179.658905 581.636780,179.658905 
	C581.636780,170.666458 581.631958,161.868088 581.638855,153.069733 
	C581.642212,148.737823 581.725342,144.405060 581.660217,140.074371 
	C581.622620,137.573105 582.546875,136.412827 585.190002,136.574341 
	C587.845703,136.736649 590.578125,136.264496 593.165710,136.712875 
	C595.071045,137.043076 596.797302,138.407471 598.902893,139.460892 
	C605.605347,132.983124 613.627625,133.708023 624.123108,142.820969 
	C626.705688,137.403229 631.276367,135.326050 637.033569,135.403107 
	C645.519592,135.516693 651.544067,140.531204 651.989685,148.930893 
	C652.483215,158.232559 652.174194,167.574936 652.316650,176.898041 
	C652.370605,180.428802 649.979431,180.494202 647.594238,180.427094 
	C644.342773,180.335587 641.097900,180.013687 637.061829,179.736420 
	C637.061829,174.343979 637.115906,168.757019 637.042053,163.171768 
	C636.995850,159.683807 636.865906,156.189178 636.571960,152.714584 
	C636.307190,149.585342 635.376709,146.621628 631.721375,146.033310 
	C627.790466,145.400696 626.051941,147.969681 624.945679,151.694244 
z"/>
<path fill="#25BACE" opacity="1.000000" stroke="none" 
	d="
M457.513672,178.592239 
	C448.267181,175.218277 444.791351,168.198349 444.517731,159.429153 
	C444.231812,150.264496 446.871185,142.083572 455.691528,137.675735 
	C462.628754,134.208954 469.759857,134.387177 476.544861,138.824097 
	C481.124695,134.145538 486.827148,137.891754 492.661621,136.136520 
	C492.661621,148.763596 492.819580,160.363968 492.580719,171.956161 
	C492.490295,176.343613 491.978638,180.853714 490.775879,185.055099 
	C489.115387,190.855545 484.666931,194.339508 478.965820,196.111969 
	C471.102417,198.556656 463.247253,198.557465 455.469238,195.709747 
	C449.576935,193.552429 446.262512,188.730255 445.995117,181.390350 
	C450.080566,181.390350 454.167877,181.234833 458.226624,181.506638 
	C459.167084,181.569626 460.064240,183.042160 460.887512,183.951096 
	C463.401550,186.726791 468.950287,187.449905 472.975891,185.475876 
	C476.516846,183.739502 477.681061,180.764236 476.618103,175.536911 
	C470.912781,180.147934 464.579132,180.630844 457.513672,178.592239 
M476.547455,151.237503 
	C472.635254,145.117966 466.350372,144.057678 462.225281,148.821304 
	C459.301117,152.198105 459.051025,163.205750 462.508362,166.229996 
	C464.492310,167.965408 467.956146,169.189209 470.462494,168.794373 
	C472.688263,168.443726 475.645264,165.862961 476.259979,163.694153 
	C477.301849,160.018555 476.753174,155.892120 476.547455,151.237503 
z"/>
<path fill="#25BDD0" opacity="1.000000" stroke="none" 
	d="
M273.003723,151.000000 
	C273.003632,141.891495 273.003632,133.282990 273.003632,124.741798 
	C283.694855,124.741798 293.998138,124.044205 304.158325,124.950653 
	C313.156921,125.753479 318.633820,133.455795 318.398743,142.469559 
	C318.148621,152.059677 312.553406,158.644714 303.387665,159.888199 
	C299.947296,160.354919 296.430481,160.804367 292.990540,160.589508 
	C288.685669,160.320602 287.474518,162.051056 287.741272,166.071884 
	C288.026398,170.370056 287.805511,174.701782 287.805511,179.932190 
	C285.233643,179.932190 282.837006,179.932190 280.440338,179.932190 
	C278.117645,179.932190 275.794922,179.932190 273.003784,179.932190 
	C273.003784,170.323395 273.003784,160.911697 273.003723,151.000000 
M302.479706,142.463104 
	C301.730255,136.778229 297.603058,133.875488 290.798065,136.050003 
	C284.101166,138.189926 289.451294,144.142319 287.406036,148.715500 
	C290.824707,148.715500 293.268890,148.625854 295.704071,148.735901 
	C299.653076,148.914337 302.006592,147.266571 302.479706,142.463104 
z"/>
<path fill="#2AA9BF" opacity="1.000000" stroke="none" 
	d="
M165.858093,213.060089 
	C142.158524,203.582794 127.814590,182.987839 128.707596,159.057266 
	C129.639297,134.089417 145.637436,114.626984 168.940323,107.556152 
	C192.292145,100.470474 219.108337,111.437561 231.295044,132.066650 
	C243.373505,152.512527 242.144318,176.627625 228.099396,194.761398 
	C214.369919,212.487915 191.480667,219.936005 169.105637,213.959595 
	C168.143356,213.702576 167.176636,213.462173 165.858093,213.060089 
M179.001877,109.975998 
	C178.022705,110.164886 177.047531,110.378151 176.063797,110.539093 
	C148.129059,115.109299 130.453659,140.338791 133.146545,166.037811 
	C136.129303,194.503082 161.026062,214.244125 189.235992,211.607544 
	C225.391418,208.228394 246.263382,169.256409 229.582550,137.600845 
	C219.180679,117.861015 202.041916,109.136871 179.001877,109.975998 
z"/>
<path fill="#25BACE" opacity="1.000000" stroke="none" 
	d="
M567.348389,138.532806 
	C569.424438,141.260757 572.467407,143.676758 572.718933,146.354935 
	C573.766602,157.509811 573.973999,168.743607 574.516846,180.541626 
	C568.589233,179.992493 563.450317,179.516418 557.983582,179.009979 
	C553.912964,179.639053 549.255737,180.879471 544.580994,180.949417 
	C538.738159,181.036865 533.745300,176.254868 533.107239,171.032562 
	C532.159546,163.276306 535.311707,157.620697 542.471436,155.466339 
	C547.508118,153.950821 552.782349,153.224808 558.221436,152.089737 
	C558.896362,149.178787 558.041016,146.496887 554.897461,146.286896 
	C552.978882,146.158722 550.893433,148.105530 548.930725,149.205460 
	C547.536865,149.986557 546.285522,151.499893 544.860352,151.651779 
	C541.445129,152.015717 537.964905,151.769394 534.588196,151.769394 
	C533.061829,138.864304 551.357544,130.624252 567.348389,138.532806 
M553.292847,170.757126 
	C554.693726,169.795502 556.587036,169.121887 557.363037,167.794846 
	C558.213562,166.340363 558.033020,164.282928 558.301819,162.488251 
	C555.912964,162.629944 553.368042,162.324188 551.194092,163.082214 
	C549.903931,163.532059 548.129883,166.067062 548.464233,166.941864 
	C549.063232,168.509125 551.089233,169.530960 553.292847,170.757126 
z"/>
<path fill="#25BCCF" opacity="1.000000" stroke="none" 
	d="
M320.240906,155.368713 
	C322.461914,143.674881 328.595032,137.267075 338.817078,135.547150 
	C349.004211,133.833115 360.095245,138.337357 364.178192,146.574631 
	C368.451141,155.195206 368.403809,164.173447 362.767303,172.175995 
	C356.379913,181.244766 346.752167,182.263550 336.786133,180.424118 
	C325.139709,178.274536 318.983032,167.433990 320.240906,155.368713 
M337.086670,149.842758 
	C336.860596,154.865707 335.946442,159.997513 336.716125,164.862930 
	C337.069244,167.095245 340.434052,169.717377 342.959991,170.534973 
	C346.672394,171.736649 349.566223,168.934265 350.228821,165.463165 
	C351.017456,161.331741 351.421844,156.856812 350.688782,152.764252 
	C349.372925,145.417526 343.030579,143.909698 337.086670,149.842758 
z"/>
<path fill="#25BACD" opacity="1.000000" stroke="none" 
	d="
M395.793396,153.425751 
	C398.219635,154.211334 400.350403,154.713608 402.288483,155.625366 
	C406.795319,157.745621 409.644775,161.031677 409.928558,166.361969 
	C410.218201,171.801178 407.926178,175.635529 403.479279,178.373672 
	C396.322388,182.780472 381.336212,182.100647 375.134094,176.533066 
	C372.535583,174.200409 371.096222,170.576523 369.129852,167.539673 
	C369.501801,167.105652 369.873779,166.671616 370.245758,166.237595 
	C374.350037,166.237595 378.459564,166.127716 382.554504,166.323044 
	C383.458282,166.366150 384.338104,167.455612 385.180023,168.124817 
	C386.458862,169.141312 387.625458,170.952591 388.966125,171.078308 
	C390.792145,171.249527 392.737122,170.151962 394.631104,169.598450 
	C393.670776,168.069901 393.055237,165.775085 391.684601,165.158340 
	C387.772461,163.397995 383.514587,162.426407 379.462433,160.952927 
	C369.126801,157.194641 369.356384,144.922333 376.616333,139.322189 
	C383.730591,133.834427 397.470093,133.988297 403.975708,140.167725 
	C406.308655,142.383743 407.634338,145.660217 410.240204,149.735962 
	C404.294525,149.735962 400.185852,149.922485 396.115051,149.612259 
	C395.019684,149.528778 394.132202,147.784180 392.980560,147.076767 
	C391.796326,146.349304 390.415100,145.594101 389.102081,145.560776 
	C388.363770,145.542038 386.830719,147.181931 386.978973,147.683502 
	C387.359009,148.969437 388.239014,150.452179 389.357056,151.097443 
	C391.192627,152.156815 393.374512,152.616135 395.793396,153.425751 
z"/>
<path fill="#26BBCF" opacity="1.000000" stroke="none" 
	d="
M417.763824,150.644958 
	C418.766632,144.550247 413.791779,147.521332 411.523834,145.869202 
	C411.523834,143.209244 411.523834,140.314209 411.523834,137.204407 
	C413.585449,136.934174 415.525024,136.679932 417.936615,136.363831 
	C417.936615,133.042297 417.936615,129.799438 417.936615,126.106873 
	C423.117737,126.106873 427.817413,126.106873 432.660370,126.106873 
	C432.898193,129.343781 432.070251,133.289520 433.670868,135.333862 
	C435.105682,137.166504 439.213287,136.906509 442.433838,137.635880 
	C442.433838,140.232040 442.433838,142.990921 442.433838,146.255630 
	C439.657898,146.417435 436.908417,146.577682 433.435059,146.780136 
	C433.435059,153.787415 433.337128,160.658508 433.543579,167.520432 
	C433.573608,168.517807 434.865967,169.937103 435.903900,170.369263 
	C442.393860,173.071442 442.424866,172.996948 441.059052,180.855011 
	C436.613892,180.855011 431.976196,181.281219 427.450226,180.751938 
	C421.161011,180.016479 418.741821,177.417664 418.253021,170.978561 
	C417.751709,164.374588 417.882111,157.722626 417.763824,150.644958 
z"/>
<path fill="#26BBCF" opacity="1.000000" stroke="none" 
	d="
M503.606873,136.629669 
	C507.702942,136.612076 511.353455,136.612076 515.262817,136.612076 
	C515.626892,138.241806 515.931519,139.605362 516.276855,141.151291 
	C525.589294,133.483292 532.683960,130.503891 530.359070,147.479172 
	C529.919312,147.727570 529.649780,147.984695 529.345093,148.036743 
	C517.261414,150.101776 516.933533,150.424042 515.988831,162.869080 
	C515.775024,165.686768 515.851013,168.527649 515.825623,171.358124 
	C515.801819,174.017563 515.820496,176.677399 515.820496,179.790588 
	C510.885681,179.790588 506.161011,179.790588 500.780334,179.790588 
	C500.780334,172.525208 500.747009,165.420700 500.790375,158.316635 
	C500.828003,152.155151 500.852356,145.989609 501.132080,139.837219 
	C501.181732,138.745392 502.453735,137.709152 503.606873,136.629669 
z"/>
<path fill="#00070B" opacity="1.000000" stroke="none" 
	d="
M476.710266,151.596344 
	C476.753174,155.892120 477.301849,160.018555 476.259979,163.694153 
	C475.645264,165.862961 472.688263,168.443726 470.462494,168.794373 
	C467.956146,169.189209 464.492310,167.965408 462.508362,166.229996 
	C459.051025,163.205750 459.301117,152.198105 462.225281,148.821304 
	C466.350372,144.057678 472.635254,145.117966 476.710266,151.596344 
z"/>
<path fill="#00080C" opacity="1.000000" stroke="none" 
	d="
M302.471924,142.844513 
	C302.006592,147.266571 299.653076,148.914337 295.704071,148.735901 
	C293.268890,148.625854 290.824707,148.715500 287.406036,148.715500 
	C289.451294,144.142319 284.101166,138.189926 290.798065,136.050003 
	C297.603058,133.875488 301.730255,136.778229 302.471924,142.844513 
z"/>
<path fill="#000203" opacity="1.000000" stroke="none" 
	d="
M179.452179,109.949097 
	C202.041916,109.136871 219.180679,117.861015 229.582550,137.600845 
	C246.263382,169.256409 225.391418,208.228394 189.235992,211.607544 
	C161.026062,214.244125 136.129303,194.503082 133.146545,166.037811 
	C130.453659,140.338791 148.129059,115.109299 176.063797,110.539093 
	C177.047531,110.378151 178.022705,110.164886 179.452179,109.949097 
M155.752426,153.249252 
	C153.173782,155.568512 150.595139,157.887772 148.575882,159.703934 
	C161.043243,172.283157 172.816971,184.162537 183.813309,195.257553 
	C195.507950,183.726028 207.405243,171.994690 218.648193,160.908554 
	C207.272064,149.333801 195.628494,137.486923 183.589798,125.238014 
	C174.538910,134.361206 165.406372,143.566696 155.752426,153.249252 
z"/>
<path fill="#001117" opacity="1.000000" stroke="none" 
	d="
M552.905823,170.768936 
	C551.089233,169.530960 549.063232,168.509125 548.464233,166.941864 
	C548.129883,166.067062 549.903931,163.532059 551.194092,163.082214 
	C553.368042,162.324188 555.912964,162.629944 558.301819,162.488251 
	C558.033020,164.282928 558.213562,166.340363 557.363037,167.794846 
	C556.587036,169.121887 554.693726,169.795502 552.905823,170.768936 
z"/>
<path fill="#00080B" opacity="1.000000" stroke="none" 
	d="
M337.298096,149.513046 
	C343.030579,143.909698 349.372925,145.417526 350.688782,152.764252 
	C351.421844,156.856812 351.017456,161.331741 350.228821,165.463165 
	C349.566223,168.934265 346.672394,171.736649 342.959991,170.534973 
	C340.434052,169.717377 337.069244,167.095245 336.716125,164.862930 
	C335.946442,159.997513 336.860596,154.865707 337.298096,149.513046 
z"/>
<path fill="#2BAABF" opacity="1.000000" stroke="none" 
	d="
M156.013123,153.010712 
	C165.406372,143.566696 174.538910,134.361206 183.589798,125.238014 
	C195.628494,137.486923 207.272064,149.333801 218.648193,160.908554 
	C207.405243,171.994690 195.507950,183.726028 183.813309,195.257553 
	C172.816971,184.162537 161.043243,172.283157 148.575882,159.703934 
	C150.595139,157.887772 153.173782,155.568512 156.013123,153.010712 
M197.478455,144.093948 
	C193.971390,140.563904 190.311630,137.169525 187.011688,133.455460 
	C184.860321,131.034134 183.417023,131.429428 181.381088,133.503204 
	C173.698608,141.328537 165.890778,149.030701 158.144699,156.793747 
	C156.794830,158.146576 155.516418,159.570709 154.705017,160.431473 
	C164.869888,170.654175 174.555771,180.395172 184.354431,190.249603 
	C184.523407,190.158279 185.029358,190.012466 185.359482,189.687836 
	C194.356674,180.839966 203.404846,172.040802 212.194717,162.990860 
	C212.943604,162.219818 212.581879,159.168442 211.660004,158.180786 
	C207.276581,153.484467 202.520386,149.136093 197.478455,144.093948 
z"/>
<path fill="#000305" opacity="1.000000" stroke="none" 
	d="
M197.687683,144.378906 
	C202.520386,149.136093 207.276581,153.484467 211.660004,158.180786 
	C212.581879,159.168442 212.943604,162.219818 212.194717,162.990860 
	C203.404846,172.040802 194.356674,180.839966 185.359482,189.687836 
	C185.029358,190.012466 184.523407,190.158279 184.354431,190.249603 
	C174.555771,180.395172 164.869888,170.654175 154.705017,160.431473 
	C155.516418,159.570709 156.794830,158.146576 158.144699,156.793747 
	C165.890778,149.030701 173.698608,141.328537 181.381088,133.503204 
	C183.417023,131.429428 184.860321,131.034134 187.011688,133.455460 
	C190.311630,137.169525 193.971390,140.563904 197.687683,144.378906 
z"/>
</svg>